<svg width="20" height="20" viewBox="0 0 20 20" fill="none" xmlns="http://www.w3.org/2000/svg">
<path fill-rule="evenodd" clip-rule="evenodd" d="M2.89687 7.35645C2.56567 7.35645 2.29688 7.62525 2.29688 7.95645V12.1964C2.29688 12.5276 2.56567 12.7964 2.89687 12.7964C3.22807 12.7964 3.49687 12.5276 3.49687 12.1964V7.95645C3.49687 7.62525 3.22807 7.35645 2.89687 7.35645Z" fill="#1B6A5F"/>
<path fill-rule="evenodd" clip-rule="evenodd" d="M17.2973 7.27588C16.9661 7.27588 16.6973 7.54468 16.6973 7.87588V12.1159C16.6973 12.4471 16.9661 12.7159 17.2973 12.7159C17.6285 12.7159 17.8973 12.4471 17.8973 12.1159V7.87588C17.8973 7.54468 17.6285 7.27588 17.2973 7.27588Z" fill="#1B6A5F"/>
<path fill-rule="evenodd" clip-rule="evenodd" d="M10.8088 14.3322C10.7208 14.6442 10.4248 14.8762 10.0968 14.8762C9.69675 14.8762 9.35275 14.5242 9.35275 14.1162C9.35275 13.7002 9.69675 13.3562 10.0968 13.3562C10.4248 13.3562 10.6968 13.5242 10.8168 13.7882C10.8968 13.9642 10.8888 14.1642 10.8088 14.3322ZM12.0968 2.59619H8.25675C6.50472 2.59619 5.13672 3.96419 5.13672 5.71619V14.2762C5.13672 16.0282 6.50472 17.3962 8.25675 17.3962H12.0728C12.1288 17.3962 12.1768 17.4042 12.2248 17.4042C12.9528 17.4042 13.6568 17.1082 14.2168 16.5802C14.8488 15.9802 15.2168 15.1402 15.2168 14.2762V5.71619C15.2168 3.96419 13.8488 2.59619 12.0968 2.59619Z" fill="#1B6A5F"/>
</svg>
