<svg width="20" height="26" viewBox="0 0 20 26" fill="none" xmlns="http://www.w3.org/2000/svg">
<path d="M16.7045 13.7949C16.729 11.865 17.7481 10.0389 19.3648 9.02811C18.3449 7.54675 16.6366 6.60753 14.8592 6.55097C12.9636 6.34862 11.1258 7.70458 10.1598 7.70458C9.17508 7.70458 7.68777 6.57106 6.08619 6.60458C3.99859 6.67317 2.05242 7.88022 1.03676 9.73633C-1.14651 13.5805 0.482015 19.2302 2.5734 22.3375C3.61977 23.8591 4.84267 25.5587 6.44281 25.4984C8.00865 25.4324 8.59346 24.483 10.4836 24.483C12.3561 24.483 12.9048 25.4984 14.5374 25.4601C16.2176 25.4324 17.2762 23.9318 18.2859 22.3958C19.0377 21.3116 19.6162 20.1134 20 18.8454C18.0254 17.9961 16.7068 15.9752 16.7045 13.7949Z" fill="white"/>
<path d="M13.6208 4.50743C14.5369 3.38898 14.9882 1.95141 14.8789 0.5C13.4793 0.649501 12.1864 1.32979 11.2579 2.40533C10.35 3.45618 9.87749 4.86846 9.96681 6.2644C11.3669 6.27906 12.7434 5.61721 13.6208 4.50743Z" fill="white"/>
</svg>
