<svg width="84" height="28" viewBox="0 0 84 28" fill="none" xmlns="http://www.w3.org/2000/svg">
<path d="M52.6687 12.0414V14.5993H51.062V16.2767H52.6687V21.9763C52.6687 23.9225 53.551 24.701 55.7707 24.701C56.1608 24.701 56.5323 24.6547 56.8573 24.5991V22.9402C56.5787 22.968 56.4023 22.9865 56.0958 22.9865C55.102 22.9865 54.6655 22.5231 54.6655 21.4666V16.2767H56.8573V14.5993H54.6655V12.0414H52.6687Z" fill="white"/>
<path d="M62.5119 24.84C65.4653 24.84 67.2763 22.866 67.2763 19.5945C67.2763 16.3416 65.456 14.3583 62.5119 14.3583C59.5585 14.3583 57.7382 16.3416 57.7382 19.5945C57.7382 22.866 59.5492 24.84 62.5119 24.84ZM62.5119 23.0699C60.7751 23.0699 59.8 21.8002 59.8 19.5945C59.8 17.4074 60.7751 16.1284 62.5119 16.1284C64.2394 16.1284 65.2238 17.4074 65.2238 19.5945C65.2238 21.791 64.2394 23.0699 62.5119 23.0699Z" fill="white"/>
<path d="M68.8259 24.6454H70.8226V18.6863C70.8226 17.2684 71.8907 16.3138 73.4045 16.3138C73.7575 16.3138 74.3519 16.3787 74.519 16.4343V14.4695C74.3054 14.4139 73.9246 14.3861 73.6274 14.3861C72.3086 14.3861 71.1849 15.109 70.8969 16.1006H70.7483V14.5529H68.8259V24.6454Z" fill="white"/>
<path d="M79.477 16.0543C80.9537 16.0543 81.9196 17.083 81.9661 18.6678H76.858C76.9694 17.0923 78.0003 16.0543 79.477 16.0543ZM81.9568 21.9207C81.5853 22.7085 80.7587 23.1441 79.5513 23.1441C77.9539 23.1441 76.923 22.0227 76.858 20.2525V20.1413H84V19.4463C84 16.2767 82.3004 14.3583 79.4863 14.3583C76.6351 14.3583 74.824 16.4065 74.824 19.6316C74.824 22.8568 76.5979 24.84 79.4956 24.84C81.8082 24.84 83.4242 23.7279 83.8793 21.9207H81.9568Z" fill="white"/>
<path d="M39.574 20.9184C39.7281 23.3967 41.7977 24.9816 44.878 24.9816C48.1702 24.9816 50.2302 23.3198 50.2302 20.6687C50.2302 18.5842 49.0558 17.4316 46.2064 16.7688L44.6759 16.3941C42.8662 15.9715 42.1346 15.4048 42.1346 14.4154C42.1346 13.1666 43.2705 12.3502 44.9743 12.3502C46.5915 12.3502 47.7081 13.1474 47.9103 14.425H50.0088C49.8836 12.0908 47.8236 10.4482 45.0032 10.4482C41.971 10.4482 39.9495 12.0908 39.9495 14.5595C39.9495 16.5959 41.095 17.8062 43.6074 18.3921L45.3979 18.8244C47.2364 19.2566 48.045 19.8906 48.045 20.9472C48.045 22.1768 46.7744 23.0701 45.0417 23.0701C43.1838 23.0701 41.8939 22.2344 41.711 20.9184H39.574Z" fill="white"/>
<path d="M18.8893 14.3861C17.5148 14.3861 16.326 15.0719 15.713 16.2211H15.5644V14.5529H13.6419V28.0003H15.6387V23.1163H15.7966C16.326 24.182 17.4683 24.8122 18.9079 24.8122C21.4619 24.8122 23.0872 22.8011 23.0872 19.5945C23.0872 16.3879 21.4619 14.3861 18.8893 14.3861ZM18.3228 23.0236C16.651 23.0236 15.6015 21.7076 15.6015 19.6038C15.6015 17.4908 16.651 16.1748 18.332 16.1748C20.0224 16.1748 21.0347 17.463 21.0347 19.5945C21.0347 21.7354 20.0224 23.0236 18.3228 23.0236Z" fill="white"/>
<path d="M30.0743 14.3861C28.6998 14.3861 27.511 15.0719 26.898 16.2211H26.7494V14.5529H24.8269V28.0003H26.8237V23.1163H26.9816C27.511 24.182 28.6533 24.8122 30.0929 24.8122C32.6469 24.8122 34.2722 22.8011 34.2722 19.5945C34.2722 16.3879 32.6469 14.3861 30.0743 14.3861ZM29.5078 23.0236C27.836 23.0236 26.7866 21.7076 26.7866 19.6038C26.7866 17.4908 27.836 16.1748 29.5171 16.1748C31.2074 16.1748 32.2197 17.463 32.2197 19.5945C32.2197 21.7354 31.2074 23.0236 29.5078 23.0236Z" fill="white"/>
<path d="M10.0593 24.6454H12.3503L7.33511 10.7844H5.01522L0 24.6454H2.21401L3.49429 20.9664H8.78866L10.0593 24.6454ZM6.06446 13.3011H6.22811L8.23997 19.1606H4.04298L6.06446 13.3011Z" fill="white"/>
<path d="M1.3418 0.329002V7.01562H3.76117C5.75796 7.01562 6.91425 5.78766 6.91425 3.65146C6.91425 1.5477 5.74868 0.329002 3.76117 0.329002H1.3418ZM2.38199 1.2743H3.64508C5.03354 1.2743 5.85548 2.15473 5.85548 3.66536C5.85548 5.19916 5.04748 6.07032 3.64508 6.07032H2.38199V1.2743Z" fill="white"/>
<path d="M10.4555 7.11293C11.9322 7.11293 12.8378 6.12593 12.8378 4.49018C12.8378 2.86371 11.9276 1.87207 10.4555 1.87207C8.97884 1.87207 8.06867 2.86371 8.06867 4.49018C8.06867 6.12593 8.9742 7.11293 10.4555 7.11293ZM10.4555 6.22787C9.58716 6.22787 9.09958 5.59304 9.09958 4.49018C9.09958 3.3966 9.58716 2.75713 10.4555 2.75713C11.3193 2.75713 11.8115 3.3966 11.8115 4.49018C11.8115 5.5884 11.3193 6.22787 10.4555 6.22787Z" fill="white"/>
<path d="M20.5491 1.96938H19.5507L18.6498 5.82009H18.5709L17.5307 1.96938H16.5741L15.5339 5.82009H15.4596L14.5541 1.96938H13.5417L14.9349 7.01562H15.9611L17.0013 3.29929H17.0803L18.1251 7.01562H19.1606L20.5491 1.96938Z" fill="white"/>
<path d="M21.6989 7.01562H22.6973V4.06387C22.6973 3.27612 23.1663 2.78493 23.9046 2.78493C24.643 2.78493 24.9959 3.18808 24.9959 3.999V7.01562H25.9943V3.74877C25.9943 2.54861 25.3721 1.87207 24.2436 1.87207C23.4821 1.87207 22.9805 2.21034 22.7344 2.77103H22.6601V1.96938H21.6989V7.01562Z" fill="white"/>
<path d="M27.5667 7.01562H28.5651V0H27.5667V7.01562Z" fill="white"/>
<path d="M32.32 7.11293C33.7967 7.11293 34.7022 6.12593 34.7022 4.49018C34.7022 2.86371 33.792 1.87207 32.32 1.87207C30.8433 1.87207 29.9331 2.86371 29.9331 4.49018C29.9331 6.12593 30.8386 7.11293 32.32 7.11293ZM32.32 6.22787C31.4516 6.22787 30.964 5.59304 30.964 4.49018C30.964 3.3966 31.4516 2.75713 32.32 2.75713C33.1837 2.75713 33.6759 3.3966 33.6759 4.49018C33.6759 5.5884 33.1837 6.22787 32.32 6.22787Z" fill="white"/>
<path d="M37.677 6.26031C37.1336 6.26031 36.7389 5.99618 36.7389 5.54206C36.7389 5.09722 37.0547 4.86089 37.7513 4.81455L38.9865 4.73578V5.15746C38.9865 5.78302 38.4292 6.26031 37.677 6.26031ZM37.4215 7.09903C38.0856 7.09903 38.6382 6.81173 38.94 6.30665H39.019V7.01562H39.9802V3.56805C39.9802 2.50227 39.2651 1.87207 37.9974 1.87207C36.8504 1.87207 36.0331 2.42813 35.9309 3.29466H36.8968C37.0083 2.93785 37.3937 2.73396 37.9509 2.73396C38.6336 2.73396 38.9865 3.03516 38.9865 3.56805V4.00363L37.6166 4.08241C36.4139 4.15655 35.7359 4.68017 35.7359 5.5884C35.7359 6.51054 36.4464 7.09903 37.4215 7.09903Z" fill="white"/>
<path d="M43.3683 7.09903C44.0648 7.09903 44.6546 6.77003 44.9564 6.2186H45.0354V7.01562H45.992V0H44.9936V2.77103H44.9193C44.6453 2.21497 44.0602 1.88597 43.3683 1.88597C42.0913 1.88597 41.2693 2.89615 41.2693 4.49018C41.2693 6.08886 42.082 7.09903 43.3683 7.09903ZM43.6515 2.7803C44.4874 2.7803 45.0122 3.44294 45.0122 4.49482C45.0122 5.55133 44.4921 6.2047 43.6515 6.2047C42.8064 6.2047 42.3002 5.5606 42.3002 4.49018C42.3002 3.42904 42.811 2.7803 43.6515 2.7803Z" fill="white"/>
<path d="M52.4662 7.11293C53.9429 7.11293 54.8485 6.12593 54.8485 4.49018C54.8485 2.86371 53.9383 1.87207 52.4662 1.87207C50.9895 1.87207 50.0794 2.86371 50.0794 4.49018C50.0794 6.12593 50.9849 7.11293 52.4662 7.11293ZM52.4662 6.22787C51.5979 6.22787 51.1103 5.59304 51.1103 4.49018C51.1103 3.3966 51.5979 2.75713 52.4662 2.75713C53.33 2.75713 53.8222 3.3966 53.8222 4.49018C53.8222 5.5884 53.33 6.22787 52.4662 6.22787Z" fill="white"/>
<path d="M56.1701 7.01562H57.1685V4.06387C57.1685 3.27612 57.6375 2.78493 58.3758 2.78493C59.1142 2.78493 59.4671 3.18808 59.4671 3.999V7.01562H60.4655V3.74877C60.4655 2.54861 59.8432 1.87207 58.7148 1.87207C57.9532 1.87207 57.4517 2.21034 57.2056 2.77103H57.1313V1.96938H56.1701V7.01562Z" fill="white"/>
<path d="M65.0637 0.71361V1.99255H64.2603V2.83127H65.0637V5.68108C65.0637 6.65418 65.5048 7.04343 66.6147 7.04343C66.8097 7.04343 66.9955 7.02026 67.158 6.99245V6.163C67.0187 6.1769 66.9305 6.18617 66.7772 6.18617C66.2803 6.18617 66.0621 5.95448 66.0621 5.42622V2.83127H67.158V1.99255H66.0621V0.71361H65.0637Z" fill="white"/>
<path d="M68.4982 7.01562H69.4966V4.06851C69.4966 3.30392 69.9517 2.78957 70.7689 2.78957C71.4748 2.78957 71.8509 3.19734 71.8509 4.00363V7.01562H72.8493V3.75804C72.8493 2.55788 72.1853 1.8767 71.1079 1.8767C70.3464 1.8767 69.8123 2.21497 69.5662 2.7803H69.4873V0H68.4982V7.01562Z" fill="white"/>
<path d="M76.451 2.72006C77.1893 2.72006 77.6723 3.23442 77.6955 4.0268H75.1415C75.1972 3.23905 75.7126 2.72006 76.451 2.72006ZM77.6909 5.65328C77.5051 6.04715 77.0918 6.26494 76.4881 6.26494C75.6894 6.26494 75.174 5.70425 75.1415 4.81919V4.76358H78.7125V4.41604C78.7125 2.83127 77.8627 1.87207 76.4556 1.87207C75.03 1.87207 74.1245 2.89615 74.1245 4.50872C74.1245 6.12129 75.0114 7.11293 76.4603 7.11293C77.6166 7.11293 78.4246 6.55687 78.6521 5.65328H77.6909Z" fill="white"/>
</svg>
