<svg width="20" height="20" viewBox="0 0 20 20" fill="none" xmlns="http://www.w3.org/2000/svg">
<path d="M2.60175 11.2702C2.4541 11.2446 2.31836 11.3577 2.31836 11.5076V13.6113C2.31836 15.9801 3.84555 17.7001 5.95036 17.7001H13.704C15.808 17.7001 17.3351 15.9801 17.3351 13.6113V11.5084C17.3351 11.3585 17.1995 11.2453 17.0518 11.2709C15.9248 11.4662 14.7213 11.6117 13.4803 11.7076C13.3548 11.7173 13.2576 11.8217 13.2576 11.9475V11.956C13.2576 12.2872 12.9888 12.556 12.6576 12.556C12.3264 12.556 12.0576 12.2872 12.0576 11.956C12.0576 11.8682 11.9843 11.7983 11.8966 11.802C11.2113 11.8312 10.52 11.8457 9.82851 11.8457C9.13691 11.8457 8.44539 11.8312 7.76013 11.802C7.67243 11.7982 7.59914 11.8682 7.59914 11.956C7.59914 12.2872 7.33034 12.556 6.99914 12.556C6.66794 12.556 6.39914 12.2872 6.39914 11.956V11.9474C6.39914 11.8216 6.3019 11.7172 6.17642 11.7075C4.93421 11.6116 3.72966 11.4658 2.60175 11.2702Z" fill="#182230"/>
<path fill-rule="evenodd" clip-rule="evenodd" d="M13.0696 4.58198C13.0947 4.69908 13.1951 4.7878 13.3148 4.7878H13.704C15.7824 4.7878 17.3351 6.4686 17.3351 7.971V9.80084C17.3351 9.91604 17.2534 10.015 17.1402 10.0359C15.9811 10.2492 14.7324 10.4068 13.4408 10.5087C13.342 10.5164 13.2576 10.4382 13.2576 10.339C13.2576 10.0078 12.9888 9.739 12.6576 9.739C12.3264 9.739 12.0576 10.0078 12.0576 10.339V10.3669C12.0576 10.4951 11.9569 10.6006 11.8289 10.606C10.5031 10.6624 9.15355 10.6624 7.82777 10.606C7.69976 10.6006 7.59914 10.495 7.59914 10.3669V10.339C7.59914 10.0078 7.33034 9.739 6.99914 9.739C6.66794 9.739 6.39914 10.0078 6.39914 10.339C6.39914 10.4381 6.31479 10.5164 6.21592 10.5086C4.92311 10.4067 3.67325 10.2488 2.51331 10.0351C2.40006 10.0142 2.31836 9.91525 2.31836 9.80005V7.971C2.31836 6.4686 3.87116 4.7878 5.95036 4.7878H6.34102C6.46079 4.7878 6.56116 4.69909 6.58626 4.58198C6.86546 3.27918 8.02619 2.2998 9.41195 2.2998H10.2448C11.6298 2.2998 12.7904 3.27918 13.0696 4.58198ZM11.5801 4.7878C11.7356 4.7878 11.8503 4.64106 11.7866 4.49912C11.5225 3.91052 10.9308 3.4998 10.2448 3.4998H9.41195C8.72595 3.4998 8.13371 3.91051 7.86941 4.49908C7.80566 4.64102 7.92029 4.7878 8.07587 4.7878H11.5801Z" fill="#182230"/>
</svg>
