<svg width="20" height="20" viewBox="0 0 20 20" fill="none" xmlns="http://www.w3.org/2000/svg">
<path d="M13.7037 17.1993H5.95051C4.16573 17.1993 2.71875 15.7523 2.71875 13.5145V7.86749C2.71875 6.53571 4.16573 5.08875 5.95051 5.08875H13.7037C15.4885 5.08875 16.9355 6.53571 16.9355 7.86749V13.5145C16.9355 15.7523 15.4885 17.1993 13.7037 17.1993Z" stroke="#98A2B3" stroke-width="1.44" stroke-linecap="round" stroke-linejoin="round"/>
<path d="M6.99805 11.8573V10.2375M12.6567 11.8573V10.2375" stroke="#98A2B3" stroke-width="1.44" stroke-linecap="round" stroke-linejoin="round"/>
<path d="M12.5323 5.08945C12.5323 3.8254 11.5071 2.80029 10.2431 2.80029H9.41026C8.14538 2.80029 7.12109 3.8254 7.12109 5.08945" stroke="#98A2B3" stroke-width="1.44" stroke-linecap="round" stroke-linejoin="round"/>
<path d="M16.8983 10.4379C12.1846 11.3804 7.47156 11.3804 2.75781 10.4379" stroke="#98A2B3" stroke-width="1.44" stroke-linecap="round" stroke-linejoin="round"/>
</svg>
