<?xml version="1.0" encoding="UTF-8" standalone="no"?>
<!-- Uploaded to: SVG Repo, www.svgrepo.com, Generator: SVG Repo Mixer Tools -->

<svg
   fill="#182230"
   width="642.84399"
   height="783.99902"
   viewBox="0 0 803.55499 979.99878"
   version="1.1"
   xmlns="http://www.w3.org/2000/svg"
   xmlns:svg="http://www.w3.org/2000/svg">
<g
   id="g5"
   transform="translate(-98.224637,-9.9971618)">

<g
   transform="matrix(0.1,0,0,-0.1,0,511)"
   id="g4">

<path
   id="rect5"
   style="display:inline;fill:#182230;fill-opacity:0.98897541;stroke:#182230;stroke-width:0;stroke-opacity:0"
   d="M 5520.3079 -4991.2051 C 5449.2079 -5017.6051 1797.5108 -5015.6032 1685.8108 -4989.2032 C 1432.1108 -4930.3032 1186.4927 -4723.2987 1064.6927 -4469.5987 L 989.59501 -4311.2979 L 983.49149 -170.3067 C 979.39149 2602.4933 985.50243 4003.0966 999.70243 4068.0966 C 1056.5024 4335.9966 1257.5085 4581.7009 1523.4085 4707.5009 L 1679.7073 4782.5986 L 4937.6907 4788.7021 C 7111.6907 4792.8021 8228.1106 4786.6912 8293.1106 4772.4912 C 8619.9106 4703.4912 8920.3032 4407.1037 8995.5032 4080.3037 C 9009.7032 4021.4037 9017.7932 3030.8042 9017.7932 1270.9042 C 9017.7932 -1345.5958 9015.7946 -1453.192 8979.1946 -1530.292 C 8930.4946 -1631.792 5605.6079 -4958.8051 5520.3079 -4991.2051 z M 5465.4983 -4229.9991 L 6784.9075 -2910.5899 L 8104.2923 -1591.2051 L 6866.1087 -1585.1016 C 5514.2087 -1581.0016 5528.4108 -1578.9963 5485.8108 -1694.6963 C 5473.6108 -1725.1963 5465.4983 -2246.7895 5465.4983 -2987.6895 L 5465.4983 -4229.9991 z M 2989.0091 22.588812 L 4998.6038 22.588812 L 7008.1985 22.588812 L 7008.1985 327.10541 L 7008.1985 631.5976 L 4998.6038 631.5976 L 2989.0091 631.5976 L 2989.0091 327.10541 L 2989.0091 22.588812 z M 2989.0091 1341.998 L 4998.6038 1341.998 L 7008.1985 1341.998 L 7008.1985 1646.4902 L 7008.1985 1951.0068 L 4998.6038 1951.0068 L 2989.0091 1951.0068 L 2989.0091 1646.4902 L 2989.0091 1341.998 z M 2989.0091 2620.8066 L 3943.1106 2620.8066 L 4897.0901 2620.8066 L 4897.0901 2925.2988 L 4897.0901 3229.791 L 3943.1106 3229.791 L 2989.0091 3229.791 L 2989.0091 2925.2988 L 2989.0091 2620.8066 z "
   transform="matrix(1,0,0,-1,-3.7169635e-6,1.3544231e-5)" />







</g>

</g>
</svg>
