<svg width="20" height="20" viewBox="0 0 20 20" fill="none" xmlns="http://www.w3.org/2000/svg">
<path d="M13.334 3.33329C14.109 3.33329 14.4964 3.33329 14.8144 3.41848C15.6771 3.64965 16.351 4.32352 16.5821 5.18625C16.6673 5.50416 16.6673 5.89165 16.6673 6.66663V14.3333C16.6673 15.7334 16.6673 16.4335 16.3948 16.9683C16.1552 17.4387 15.7727 17.8211 15.3023 18.0608C14.7675 18.3333 14.0674 18.3333 12.6673 18.3333H7.33398C5.93385 18.3333 5.23379 18.3333 4.69901 18.0608C4.2286 17.8211 3.84615 17.4387 3.60647 16.9683C3.33398 16.4335 3.33398 15.7334 3.33398 14.3333V6.66663C3.33398 5.89165 3.33398 5.50416 3.41917 5.18625C3.65034 4.32352 4.32421 3.64965 5.18694 3.41848C5.50485 3.33329 5.89234 3.33329 6.66732 3.33329M7.50065 12.5L9.16732 14.1666L12.9173 10.4166M8.00065 4.99996H12.0007C12.4674 4.99996 12.7007 4.99996 12.879 4.90913C13.0358 4.82924 13.1633 4.70175 13.2432 4.54495C13.334 4.36669 13.334 4.13334 13.334 3.66663V2.99996C13.334 2.53325 13.334 2.29989 13.2432 2.12163C13.1633 1.96483 13.0358 1.83735 12.879 1.75745C12.7007 1.66663 12.4674 1.66663 12.0007 1.66663H8.00065C7.53394 1.66663 7.30059 1.66663 7.12233 1.75745C6.96552 1.83735 6.83804 1.96483 6.75815 2.12163C6.66732 2.29989 6.66732 2.53325 6.66732 2.99996V3.66663C6.66732 4.13334 6.66732 4.36669 6.75815 4.54495C6.83804 4.70175 6.96552 4.82924 7.12233 4.90913C7.30059 4.99996 7.53394 4.99996 8.00065 4.99996Z" stroke="#182230" stroke-width="1.66667" stroke-linecap="round" stroke-linejoin="round"/>
</svg>
