<svg width="20" height="20" viewBox="0 0 20 20" fill="none" xmlns="http://www.w3.org/2000/svg">
<g clip-path="url(#clip0_11257_67508)">
<path d="M11.2739 6.95996C10.7969 7.30004 10.2132 7.50008 9.58268 7.50008C7.97185 7.50008 6.66602 6.19425 6.66602 4.58341C6.66602 2.97258 7.97185 1.66675 9.58268 1.66675C10.6268 1.66675 11.5428 2.21543 12.0581 3.0402M4.99935 16.7394H7.17459C7.45821 16.7394 7.74009 16.7731 8.01503 16.8406L10.3134 17.3991C10.8121 17.5206 11.3317 17.5325 11.8356 17.4346L14.3768 16.9402C15.0481 16.8094 15.6657 16.488 16.1496 16.0172L17.9476 14.2682C18.461 13.7695 18.461 12.9604 17.9476 12.461C17.4853 12.0113 16.7533 11.9607 16.2303 12.342L14.1348 13.8708C13.8348 14.0902 13.4696 14.2083 13.0941 14.2083H11.0706L12.3586 14.2082C13.0845 14.2082 13.6726 13.6362 13.6726 12.93V12.6744C13.6726 12.088 13.2623 11.5767 12.6777 11.435L10.6898 10.9515C10.3663 10.8731 10.035 10.8334 9.70197 10.8334C8.89796 10.8334 7.44259 11.4991 7.44259 11.4991L4.99935 12.5208M16.666 5.41675C16.666 7.02758 15.3602 8.33342 13.7493 8.33342C12.1385 8.33342 10.8327 7.02758 10.8327 5.41675C10.8327 3.80592 12.1385 2.50008 13.7493 2.50008C15.3602 2.50008 16.666 3.80592 16.666 5.41675ZM1.66602 12.1667L1.66602 17.0001C1.66602 17.4668 1.66602 17.7001 1.75684 17.8784C1.83674 18.0352 1.96422 18.1627 2.12102 18.2426C2.29928 18.3334 2.53264 18.3334 2.99935 18.3334H3.66602C4.13273 18.3334 4.36608 18.3334 4.54434 18.2426C4.70114 18.1627 4.82863 18.0352 4.90852 17.8784C4.99935 17.7001 4.99935 17.4668 4.99935 17.0001V12.1667C4.99935 11.7 4.99935 11.4667 4.90852 11.2884C4.82863 11.1316 4.70114 11.0041 4.54434 10.9242C4.36608 10.8334 4.13273 10.8334 3.66602 10.8334L2.99935 10.8334C2.53264 10.8334 2.29928 10.8334 2.12102 10.9242C1.96422 11.0041 1.83674 11.1316 1.75684 11.2884C1.66602 11.4667 1.66602 11.7 1.66602 12.1667Z" stroke="#D92D20" stroke-width="1.4" stroke-linecap="round" stroke-linejoin="round"/>
</g>
<defs>
<clipPath id="clip0_11257_67508">
<rect width="20" height="20" fill="white"/>
</clipPath>
</defs>
</svg>
