<svg width="206" height="168" viewBox="0 0 206 168" fill="none" xmlns="http://www.w3.org/2000/svg">
<circle opacity="0.1" cx="103.689" cy="106" r="62" fill="#6FD9C2"/>
<circle cx="34.6895" cy="59" r="4" fill="#28A490"/>
<circle cx="110.189" cy="15.5" r="8.5" fill="#28A490"/>
<circle cx="186.689" cy="95" r="8" fill="#6FD9C2"/>
<path d="M151.689 5L153.771 10.9183L159.689 13L153.771 15.0817L151.689 21L149.608 15.0817L143.689 13L149.608 10.9183L151.689 5Z" fill="#41C0A9"/>
<path d="M28.3429 78.5306C28.3429 78.5306 26.6965 85.177 18.8989 85.4631C13.7005 85.6539 12.4776 80.2666 6.40495 83.9134C3.70056 85.5374 1.68945 90.4719 1.68945 90.4719" stroke="#41C0A9" stroke-width="3" stroke-linecap="round"/>
<path d="M31.1895 117L34.0776 124.612L41.6895 127.5L34.0776 130.388L31.1895 138L28.3013 130.388L20.6895 127.5L28.3013 124.612L31.1895 117Z" fill="#6FD9C2"/>
<circle cx="100.689" cy="3" r="2" fill="#41C0A9"/>
<path d="M38.0143 3.76226C38.9974 12.3082 58.8569 20.8261 59.2994 13.8343C60.0006 2.75464 33.2171 11.3933 69.7574 25.9123" stroke="#6FD9C2" stroke-width="3" stroke-linecap="round"/>
<path d="M184.689 133.81C189.654 133.106 200.477 134.293 204.059 144.676" stroke="#28A490" stroke-width="3" stroke-linecap="round"/>
<path d="M179.768 37.3673C179.768 37.3673 187.026 41.06 190.068 37.7505C192.843 34.7316 189.635 30.02 192.992 27.6657C195.724 25.75 201.511 27.0118 201.511 27.0118" stroke="#6FD9C2" stroke-width="3" stroke-linecap="round"/>
<rect x="176.689" y="74" width="7" height="7" rx="2" fill="#6FD9C2"/>
<path d="M94.5061 59.8043C100.387 57.3685 106.994 57.3685 112.875 59.8043L129.861 66.8404C135.742 69.2762 140.414 73.9484 142.85 79.8291L149.886 96.8156C152.322 102.696 152.322 109.304 149.886 115.184L142.85 132.171C140.414 138.052 135.742 142.724 129.861 145.16L112.875 152.196C106.994 154.632 100.387 154.632 94.5062 152.196L77.5196 145.16C71.6389 142.724 66.9668 138.052 64.5309 132.171L57.4949 115.184C55.059 109.304 55.059 102.696 57.4949 96.8156L64.5309 79.8291C66.9668 73.9484 71.6389 69.2762 77.5196 66.8404L94.5061 59.8043Z" fill="#D2F5EC"/>
<path fill-rule="evenodd" clip-rule="evenodd" d="M126.8 74.2314L109.813 67.1953C105.893 65.5714 101.488 65.5714 97.5676 67.1953L80.5811 74.2314C76.6606 75.8553 73.5458 78.9701 71.9219 82.8905L64.8859 99.8771C63.262 103.798 63.262 108.202 64.8859 112.123L71.9219 129.109C73.5459 133.03 76.6606 136.145 80.5811 137.769L97.5676 144.805C101.488 146.429 105.893 146.429 109.813 144.805L126.8 137.769C130.72 136.145 133.835 133.03 135.459 129.109L142.495 112.123C144.119 108.202 144.119 103.798 142.495 99.8771L135.459 82.8905C133.835 78.9701 130.72 75.8553 126.8 74.2314ZM112.875 59.8043C106.994 57.3685 100.387 57.3685 94.5061 59.8043L77.5196 66.8404C71.6389 69.2762 66.9668 73.9484 64.5309 79.8291L57.4949 96.8156C55.059 102.696 55.059 109.304 57.4949 115.184L64.5309 132.171C66.9668 138.052 71.6389 142.724 77.5196 145.16L94.5062 152.196C100.387 154.632 106.994 154.632 112.875 152.196L129.861 145.16C135.742 142.724 140.414 138.052 142.85 132.171L149.886 115.184C152.322 109.304 152.322 102.696 149.886 96.8156L142.85 79.8291C140.414 73.9484 135.742 69.2762 129.861 66.8404L112.875 59.8043Z" fill="#1D8475"/>
<path d="M95 106L101 112L113 100M124 106C124 117.046 115.046 126 104 126C92.9543 126 84 117.046 84 106C84 94.9544 92.9543 86.0001 104 86.0001C115.046 86.0001 124 94.9544 124 106Z" stroke="#1D8475" stroke-width="5" stroke-linecap="round" stroke-linejoin="round"/>
</svg>
