<svg width="20" height="20" viewBox="0 0 20 20" fill="none" xmlns="http://www.w3.org/2000/svg">
<path d="M7.70679 16.3342V17.4985M7.70679 12.877V14.0414M7.70679 9.41912V10.5835M7.70679 5.96121V7.12557M7.70679 2.5033V3.66765" stroke="#98A2B3" stroke-width="1.5" stroke-linecap="round" stroke-linejoin="round"/>
<path d="M11.4882 2.50003C11.9529 2.50003 12.3982 2.689 12.7202 3.02479L15.8792 6.31612C16.1851 6.63406 16.3554 7.05825 16.3554 7.49947V14.3027C16.3676 16.0166 15.0196 17.4302 13.3082 17.5L6.70361 17.4992C4.97603 17.4611 3.60694 16.0303 3.64506 14.3027V5.54722C3.68561 3.84803 5.07823 2.49273 6.77824 2.50003H11.4882Z" stroke="#98A2B3" stroke-width="1.5" stroke-linecap="round" stroke-linejoin="round"/>
<path d="M11.8914 2.55212V4.96263C11.8906 6.13868 12.8428 7.09413 14.0196 7.09657H16.302" stroke="#98A2B3" stroke-width="1.5" stroke-linecap="round" stroke-linejoin="round"/>
</svg>
