<svg width="20" height="20" viewBox="0 0 20 20" fill="none" xmlns="http://www.w3.org/2000/svg">
<path fill-rule="evenodd" clip-rule="evenodd" d="M8.013 5.74734C7.668 5.74734 7.388 5.47151 7.388 5.12651V5.11817C7.388 4.77317 7.668 4.49317 8.013 4.49317C8.35804 4.49317 8.63804 4.77317 8.63804 5.11817C8.63804 5.46317 8.35804 5.74734 8.013 5.74734ZM8.013 8.18567C7.668 8.18567 7.388 7.90984 7.388 7.56484V7.55651C7.388 7.21151 7.668 6.93151 8.013 6.93151C8.35804 6.93151 8.63804 7.21151 8.63804 7.55651C8.63804 7.90151 8.35804 8.18567 8.013 8.18567ZM8.013 10.6265C7.668 10.6265 7.388 10.3507 7.388 10.0057V9.99817C7.388 9.65317 7.668 9.37317 8.013 9.37317C8.35804 9.37317 8.63804 9.65317 8.63804 9.99817C8.63804 10.3432 8.35804 10.6265 8.013 10.6265ZM8.013 13.0648C7.668 13.0648 7.388 12.789 7.388 12.444V12.4357C7.388 12.0907 7.668 11.8107 8.013 11.8107C8.35804 11.8107 8.63804 12.0907 8.63804 12.4357C8.63804 12.7807 8.35804 13.0648 8.013 13.0648ZM8.013 15.5065C7.668 15.5065 7.388 15.2307 7.388 14.8857V14.8782C7.388 14.5323 7.668 14.2532 8.013 14.2532C8.35804 14.2532 8.63804 14.5323 8.63804 14.8782C8.63804 15.2232 8.35804 15.5065 8.013 15.5065ZM16.5414 7.57984H14.073C12.6014 7.57151 11.3872 6.35317 11.3872 4.86734V2.25234C11.3872 2.04901 11.2264 1.87817 11.0172 1.87817H6.723C4.72133 1.87817 3.09717 3.52734 3.09717 5.54151V14.2965C3.09717 16.4082 4.80133 18.1215 6.89217 18.1215H13.2847C15.2872 18.1215 16.903 16.489 16.903 14.4748V7.94567C16.903 7.74234 16.743 7.57984 16.5414 7.57984Z" fill="#1B6A5F"/>
<path fill-rule="evenodd" clip-rule="evenodd" d="M14.1798 6.39369C14.7406 6.39952 15.5198 6.40202 16.1806 6.39952C16.5189 6.39869 16.6906 5.99036 16.4564 5.74369C16.0323 5.29869 15.4414 4.67786 14.8481 4.05452C14.2523 3.42869 13.6539 2.80036 13.2189 2.34369C12.9781 2.09119 12.5581 2.26452 12.5581 2.61452V4.75536C12.5581 5.65369 13.2906 6.39369 14.1798 6.39369Z" fill="#1B6A5F"/>
</svg>
