<svg
   width="763.66699"
   height="763.66699"
   viewBox="0 0 22.91001 22.91001"
   id="Layer_1"
   data-name="Layer 1"
   version="1.1"
   sodipodi:docname="active.svg"
   inkscape:version="1.4.2 (2aeb623e1d, 2025-05-12)"
   xmlns:inkscape="http://www.inkscape.org/namespaces/inkscape"
   xmlns:sodipodi="http://sodipodi.sourceforge.net/DTD/sodipodi-0.dtd"
   xmlns="http://www.w3.org/2000/svg"
   xmlns:svg="http://www.w3.org/2000/svg">
  <sodipodi:namedview
     id="namedview7"
     pagecolor="#505050"
     bordercolor="#ffffff"
     borderopacity="1"
     inkscape:showpageshadow="0"
     inkscape:pageopacity="0"
     inkscape:pagecheckerboard="1"
     inkscape:deskcolor="#505050"
     inkscape:zoom="0.70975843"
     inkscape:cx="462.12906"
     inkscape:cy="452.97102"
     inkscape:window-width="1860"
     inkscape:window-height="1011"
     inkscape:window-x="0"
     inkscape:window-y="0"
     inkscape:window-maximized="1"
     inkscape:current-layer="Layer_1" />
  <defs
     id="defs1">
    <style
       id="style1">.cls-1{fill:none;stroke:#020202;stroke-miterlimit:10;stroke-width:1.91px;}</style>
  </defs>
  <path
     id="rect8"
     style="display:inline;stroke:#000000;stroke-width:0;stroke-opacity:0"
     d="M 0 0 L 0 22.909981 L 22.909981 22.909981 L 22.909981 0 L 0 0 z M 1.5 1.5 L 16.430098 1.5 L 16.430098 8.9701173 L 14.77002 8.9701173 L 14.77002 3.1600196 L 3.1600196 3.1600196 L 3.1600196 18.090117 L 10.62 18.090117 L 10.62 19.750137 L 1.5 19.750137 L 1.5 1.5 z M 4.815 4.8200977 L 6.4750196 4.8200977 L 6.4750196 6.4801173 L 4.815 6.4801173 L 4.815 4.8200977 z M 8.1350977 4.8200977 L 13.115156 4.8200977 L 13.115156 6.4801173 L 8.1350977 6.4801173 L 8.1350977 4.8200977 z M 4.815 8.1401954 L 6.4750196 8.1401954 L 6.4750196 9.8002149 L 4.815 9.8002149 L 4.815 8.1401954 z M 8.1350977 8.1401954 L 13.115156 8.1401954 L 13.115156 9.8002149 L 8.1350977 9.8002149 L 8.1350977 8.1401954 z M 18.499219 9.7560353 L 18.500918 9.7560353 L 20.575137 9.7560353 L 20.575137 11.828555 C 20.575137 12.703302 20.18133 13.492821 19.562637 14.027637 C 20.675877 14.771711 21.410215 15.915362 21.410215 17.260137 C 21.410215 19.653687 19.083894 21.410215 16.435254 21.410215 C 13.786615 21.410215 11.460233 19.653687 11.460234 17.260137 C 11.460233 15.120612 13.319001 13.490066 15.605215 13.168067 L 15.605215 13.103965 C 15.599335 12.182727 14.866298 11.457034 13.943496 11.460234 L 13.938399 9.8002149 C 14.858041 9.7969994 15.69539 10.174863 16.299961 10.784121 C 16.831666 10.15977 17.621028 9.7595953 18.499219 9.7560353 z M 18.506016 11.416055 L 18.505957 11.416113 C 17.800792 11.418965 17.253425 11.978952 17.265235 12.684024 L 17.265235 12.69082 L 17.265235 13.076133 L 17.669238 13.076133 C 18.367817 13.076133 18.915117 12.527135 18.915117 11.828555 L 18.915117 11.416055 L 18.506016 11.416055 z M 4.8150586 11.450039 L 6.4750782 11.450039 L 6.4750782 13.110059 L 4.8150586 13.110059 L 4.8150586 11.450039 z M 8.1350977 11.450039 L 13.115215 11.450039 L 13.115215 13.110059 L 8.1350977 13.110059 L 8.1350977 11.450039 z M 16.435254 14.770078 C 14.505025 14.770078 13.118613 15.986753 13.118613 17.260137 C 13.118613 18.53352 14.505025 19.750196 16.435254 19.750196 C 18.365482 19.750196 19.750196 18.53352 19.750196 17.260137 C 19.750196 15.986753 18.365482 14.770078 16.435254 14.770078 z " />
</svg>
