<svg width="26" height="28" viewBox="0 0 26 28" fill="none" xmlns="http://www.w3.org/2000/svg">
<g filter="url(#filter0_ii_11256_14632)">
<path d="M1.00131 0.432008C0.686231 0.767302 0.5 1.28766 0.5 1.96151V26.0373C0.5 26.7123 0.686231 27.2315 1.00131 27.5668L1.08143 27.6452L14.4954 14.1584V13.9994V13.8405L1.08143 0.352539L1.00131 0.432008Z" fill="url(#paint0_linear_11256_14632)"/>
<path d="M18.9667 18.6557L14.4961 14.1586V13.9996V13.8407L18.9678 9.34473L19.0685 9.40242L24.3663 12.4288C25.8789 13.2931 25.8789 14.7072 24.3663 15.5727L19.0685 18.599L18.9667 18.6557Z" fill="url(#paint1_linear_11256_14632)"/>
<g filter="url(#filter1_i_11256_14632)">
<path d="M19.0684 18.5978L14.495 13.9995L1.00195 27.5669C1.50001 28.0982 2.32397 28.1635 3.25187 27.6344L19.0684 18.5978Z" fill="url(#paint2_linear_11256_14632)"/>
</g>
<path d="M19.0684 9.40136L3.25187 0.365857C2.32397 -0.164299 1.50001 -0.0978932 1.00195 0.433351L14.496 14.0008L19.0684 9.40136Z" fill="url(#paint3_linear_11256_14632)"/>
</g>
<defs>
<filter id="filter0_ii_11256_14632" x="0.5" y="0" width="25.001" height="28" filterUnits="userSpaceOnUse" color-interpolation-filters="sRGB">
<feFlood flood-opacity="0" result="BackgroundImageFix"/>
<feBlend mode="normal" in="SourceGraphic" in2="BackgroundImageFix" result="shape"/>
<feColorMatrix in="SourceAlpha" type="matrix" values="0 0 0 0 0 0 0 0 0 0 0 0 0 0 0 0 0 0 127 0" result="hardAlpha"/>
<feOffset dy="-0.15"/>
<feComposite in2="hardAlpha" operator="arithmetic" k2="-1" k3="1"/>
<feColorMatrix type="matrix" values="0 0 0 0 0 0 0 0 0 0 0 0 0 0 0 0 0 0 0.12 0"/>
<feBlend mode="normal" in2="shape" result="effect1_innerShadow_11256_14632"/>
<feColorMatrix in="SourceAlpha" type="matrix" values="0 0 0 0 0 0 0 0 0 0 0 0 0 0 0 0 0 0 127 0" result="hardAlpha"/>
<feOffset dy="0.15"/>
<feComposite in2="hardAlpha" operator="arithmetic" k2="-1" k3="1"/>
<feColorMatrix type="matrix" values="0 0 0 0 1 0 0 0 0 1 0 0 0 0 1 0 0 0 0.25 0"/>
<feBlend mode="normal" in2="effect1_innerShadow_11256_14632" result="effect2_innerShadow_11256_14632"/>
</filter>
<filter id="filter1_i_11256_14632" x="1.00195" y="13.9995" width="18.0664" height="14.0005" filterUnits="userSpaceOnUse" color-interpolation-filters="sRGB">
<feFlood flood-opacity="0" result="BackgroundImageFix"/>
<feBlend mode="normal" in="SourceGraphic" in2="BackgroundImageFix" result="shape"/>
<feColorMatrix in="SourceAlpha" type="matrix" values="0 0 0 0 0 0 0 0 0 0 0 0 0 0 0 0 0 0 127 0" result="hardAlpha"/>
<feOffset dy="-0.15"/>
<feComposite in2="hardAlpha" operator="arithmetic" k2="-1" k3="1"/>
<feColorMatrix type="matrix" values="0 0 0 0 0 0 0 0 0 0 0 0 0 0 0 0 0 0 0.08 0"/>
<feBlend mode="normal" in2="shape" result="effect1_innerShadow_11256_14632"/>
</filter>
<linearGradient id="paint0_linear_11256_14632" x1="13.3063" y1="1.70678" x2="-4.96253" y2="19.8769" gradientUnits="userSpaceOnUse">
<stop stop-color="#00A0FF"/>
<stop offset="0.0066" stop-color="#00A1FF"/>
<stop offset="0.2601" stop-color="#00BEFF"/>
<stop offset="0.5122" stop-color="#00D2FF"/>
<stop offset="0.7604" stop-color="#00DFFF"/>
<stop offset="1" stop-color="#00E3FF"/>
</linearGradient>
<linearGradient id="paint1_linear_11256_14632" x1="26.3352" y1="13.9996" x2="0.137547" y2="13.9996" gradientUnits="userSpaceOnUse">
<stop stop-color="#FFE000"/>
<stop offset="0.4087" stop-color="#FFBD00"/>
<stop offset="0.7754" stop-color="#FFA500"/>
<stop offset="1" stop-color="#FF9C00"/>
</linearGradient>
<linearGradient id="paint2_linear_11256_14632" x1="16.5848" y1="16.4967" x2="-8.19013" y2="41.1377" gradientUnits="userSpaceOnUse">
<stop stop-color="#FF3A44"/>
<stop offset="1" stop-color="#C31162"/>
</linearGradient>
<linearGradient id="paint3_linear_11256_14632" x1="-2.39631" y1="-7.58125" x2="8.66636" y2="3.42164" gradientUnits="userSpaceOnUse">
<stop stop-color="#32A071"/>
<stop offset="0.0685" stop-color="#2DA771"/>
<stop offset="0.4762" stop-color="#15CF74"/>
<stop offset="0.8009" stop-color="#06E775"/>
<stop offset="1" stop-color="#00F076"/>
</linearGradient>
</defs>
</svg>
