<svg width="60" height="80" viewBox="0 0 60 80" fill="none" xmlns="http://www.w3.org/2000/svg">
<path d="M41.6445 9.23584C40.765 9.08142 40.3253 9.01014 39.4458 8.89136C39.3388 9.62783 39.2913 9.99607 39.1843 10.7326C40.0519 10.8513 40.4798 10.9226 41.3474 11.077C42.1912 11.2315 42.7498 10.9939 42.8568 10.4118C42.8568 10.4118 42.8568 10.3999 42.8568 10.3881C42.9637 9.85353 42.5953 9.40214 41.6326 9.23584H41.6445Z" fill="#1D8475"/>
<path d="M41.9415 5.48218C41.1571 5.35152 40.7649 5.29213 39.9686 5.17334C39.8735 5.87418 39.8141 6.23054 39.719 6.93138C40.4677 7.03829 40.8362 7.09768 41.5849 7.21647C42.4882 7.37089 43.0349 7.18083 43.1537 6.59878C43.1537 6.59878 43.1537 6.5869 43.1537 6.57502C43.2607 6.04048 42.8447 5.62473 41.9415 5.48218Z" fill="#1D8475"/>
<path d="M59.7929 25.3314V24.7494C59.7929 24.1079 59.7929 23.4665 59.7929 22.825C59.7929 22.7419 59.7929 22.6468 59.7929 22.5637V21.5065V20.865C59.8048 20.6631 59.8167 20.4612 59.7929 20.2711V18.6556C59.7929 17.8954 59.7929 7.05016 59.781 6.27805C59.781 6.15926 59.6027 5.98108 59.472 5.93357C57.1426 5.10206 54.825 4.22304 52.4599 3.47469C49.56 2.56003 46.6125 1.82355 43.6057 1.33653C41.3 0.95641 38.9825 0.623807 36.6649 0.362477C31.8634 -0.183942 27.0619 -0.0770339 22.2604 0.445627C19.0039 0.801987 15.7713 1.34841 12.598 2.14428C10.6251 2.64318 8.64032 3.1302 6.6912 3.75977C4.54003 4.44874 2.44829 5.29212 0.332776 6.08799C0.202042 6.13551 0.0237749 6.31369 0.0237749 6.43247C5.07831e-06 7.76288 0.0118874 19.1664 0.0118874 20.5562C0.166391 20.5206 0.28524 20.5206 0.392204 20.4849C2.0442 19.8672 3.66055 19.1783 5.33632 18.6437C7.951 17.8122 10.5657 16.957 13.2279 16.3274C16.009 15.6622 18.8376 15.1752 21.6662 14.7594C23.7222 14.4624 25.8259 14.4031 27.9057 14.2605C28.9041 14.1892 29.9024 14.1655 30.8888 14.118C31.0196 14.118 31.1503 14.118 31.281 14.1417C31.6019 14.1774 31.9109 14.2486 32.2318 14.2605C32.8617 14.2961 33.5035 14.2724 34.1215 14.3318C35.7616 14.4862 37.4018 14.6169 39.03 14.8782C41.5377 15.2702 44.0454 15.7216 46.5294 16.2324C48.0387 16.5412 49.5125 16.9807 50.9981 17.4084C52.4361 17.836 53.8386 18.3349 55.2647 18.7982C55.4668 18.8694 55.5975 18.9645 55.6451 19.1308V24.2148C55.6451 24.2148 55.6451 24.2623 55.6451 24.298V26.1392L55.3836 26.0798C55.3836 26.0798 55.5024 26.1392 55.6451 26.2104C55.6451 33.5752 55.6688 40.94 55.6332 48.2929C55.6213 50.823 54.9439 53.2225 53.898 55.527C53.2324 56.9999 52.3886 58.3779 51.4497 59.6964C51.4497 59.6964 50.1186 61.2287 48.0625 61.3832C46.5531 61.3119 45.0437 61.2169 43.5344 61.0981C41.8586 60.9555 40.266 60.4804 38.7685 59.7439C35.7854 58.2947 33.3847 56.2041 31.9347 53.175C31.1978 51.6545 31.5069 47.9365 31.5544 47.7108C31.5425 47.7108 31.5306 47.7108 31.5187 47.7108C31.8396 46.8674 32.315 46.1072 33.0162 45.5133C33.3015 45.3113 33.5392 45.145 33.658 45.05C34.0859 44.7887 34.4305 44.563 34.6801 44.3729C35.7616 43.7671 36.962 43.4464 38.2099 43.3157C39.8857 43.1494 41.5852 43.1613 43.2729 43.1613C44.1524 43.1613 44.9487 43.5058 45.6499 44.0878C46.3867 44.7055 46.8146 45.5014 47.2187 46.3923C47.3019 46.2616 47.3732 46.1785 47.4207 46.0716C47.8248 45.3232 48.2289 44.5749 48.6211 43.8265C49.4649 42.1872 50.0354 40.4886 50.0711 38.6236C50.0948 37.0081 49.7264 35.5114 48.8588 34.1454C47.6346 32.221 45.8281 30.9619 43.8196 30.0235C41.0266 28.7168 38.0673 28.0041 35.0129 27.6715C34.7871 27.6478 34.5256 27.5171 34.3592 27.3627C32.8498 25.9847 31.2929 24.69 29.6172 23.514C27.2283 21.8391 24.578 21.0432 21.7018 20.8888C18.6712 20.7344 15.6762 21.0432 12.7168 21.6847C10.839 22.0885 8.94933 22.5281 7.14282 23.1695C4.84904 23.9891 2.63845 25.0226 0.392204 25.961C0.106966 26.0798 0 26.2698 0 26.6024C0.0118849 33.5515 5.07831e-06 40.4886 0.0237749 47.4376C0.0356598 50.1816 0.499164 52.878 1.43807 55.4676C2.63844 58.7699 4.48061 61.692 6.79816 64.3172C8.96121 66.7642 11.4095 68.9142 14.0836 70.7792C15.8663 72.0146 17.6847 73.2024 19.5388 74.319C21.4641 75.4831 23.4489 76.5522 25.4218 77.6569C26.7291 78.3934 28.0483 79.0942 29.3438 79.8307C29.736 80.0564 30.045 80.0564 30.4372 79.8307C31.1028 79.4268 31.7921 79.0586 32.4576 78.6785C35.417 77.0036 38.3882 75.3643 41.3238 73.6538C44.1048 72.0264 46.7195 70.1377 49.1797 68.0471C52.4005 65.315 55.134 62.1909 57.0831 58.4254C57.927 56.7861 58.6044 55.0875 59.056 53.3176C59.6027 51.1913 59.8167 49.0056 59.8048 46.808C59.7929 39.669 59.8048 32.5299 59.8048 25.3908L59.7929 25.3314ZM14.5115 14.118C13.5607 10.1861 13.0972 8.21427 12.1464 4.28243C15.7356 3.42717 17.5421 3.10645 21.1908 2.69069C21.2977 3.64099 21.3572 4.11613 21.4641 5.06643C19.1347 5.32776 17.9818 5.50594 15.6762 5.95733C15.795 6.56314 15.8544 6.8601 15.9733 7.46592C18.0175 7.06204 19.0396 6.90762 21.1076 6.64629C21.2145 7.52531 21.274 7.96482 21.369 8.84384C19.3724 9.08141 18.374 9.24771 16.4012 9.62783C16.52 10.2574 16.5913 10.5781 16.7102 11.2077C18.8732 10.7801 19.9666 10.6138 22.1416 10.3643C22.2485 11.3146 22.3079 11.7897 22.4149 12.74C19.2298 13.0964 17.6491 13.3815 14.5115 14.1298V14.118ZM33.9433 11.1008C32.8261 11.9085 31.3642 12.5262 29.5815 12.5262C26.5271 12.5262 24.055 10.6019 23.8054 7.53719C23.8054 7.53719 23.8054 7.52531 23.8054 7.51343C23.5559 4.5794 25.9685 2.01361 29.4983 2.00173C31.5068 2.00173 32.9093 2.60754 34.0383 3.60535C33.2658 4.35371 32.8855 4.73382 32.1486 5.50594C31.388 4.87637 30.6036 4.50813 29.5221 4.50813C27.9295 4.50813 26.7529 5.8029 26.8123 7.34713C26.8123 7.34713 26.8123 7.35901 26.8123 7.37089C26.8836 8.99826 28.0721 10.1149 29.6885 10.1149C30.3778 10.1149 30.9007 9.98419 31.3286 9.71098C31.3286 9.22396 31.3405 8.97451 31.3524 8.48748C30.5323 8.46372 30.1163 8.46372 29.2963 8.46372C29.2963 7.6441 29.2963 7.22834 29.2844 6.40871C31.2573 6.40871 32.2556 6.42059 34.2285 6.55126C34.1096 8.36869 34.0502 9.28335 33.9433 11.1008ZM46.2203 6.64629C46.2203 6.64629 46.2203 6.65817 46.2203 6.67004C45.9589 7.8104 45.1032 8.32118 44.093 8.51124C45.2814 9.17644 45.9113 10.0436 45.5904 11.3859C45.5904 11.3859 45.5904 11.3978 45.5904 11.4096C45.1864 13.0964 43.5938 13.7735 41.2643 13.3577C39.2558 13.0014 38.2456 12.8588 36.2252 12.6569C36.6292 8.63002 36.8313 6.61065 37.2354 2.58379C39.5648 2.82136 40.7176 2.97578 43.0233 3.39154C44.4376 3.64099 45.3646 4.17553 45.8876 4.90013C46.2441 5.39903 46.3867 5.98108 46.2203 6.65817V6.64629ZM11.98 61.7158C11.9087 61.9533 11.873 62.2028 11.8136 62.4404C11.7542 62.6779 11.6947 62.9155 11.6115 63.2362C11.3738 63.0343 11.1718 62.9036 11.0054 62.7255C9.22268 60.8843 7.66575 58.8768 6.48915 56.5961C5.65721 54.9924 4.96789 53.3294 4.65888 51.5358C4.46873 50.4548 4.31422 49.362 4.20725 48.2691C4.18348 47.984 4.30233 47.6039 4.49249 47.3901C5.7404 46.0597 6.97643 44.6936 8.33131 43.4701C10.1735 41.8071 12.2177 40.4054 14.3807 39.1819C16.413 38.0297 18.481 36.9606 20.6797 36.1648C21.3572 35.9153 22.0346 35.6302 22.7002 35.357C22.6883 35.3214 22.6764 35.2857 22.6645 35.2501C16.1872 35.9985 10.0071 37.7446 4.26668 41.1182C4.24291 40.8687 4.21914 40.738 4.21914 40.5955C4.21914 36.8181 4.21914 33.0407 4.21914 29.2514C4.21914 28.9307 4.30234 28.7644 4.61134 28.6099C6.8457 27.5052 9.18702 26.7212 11.5997 26.1154C13.9291 25.5215 16.2942 25.1532 18.6831 24.9751C20.7629 24.8088 22.8428 24.9275 24.8394 25.569C26.1349 25.9847 27.2877 26.7212 28.3336 27.5884C29.8192 28.8237 31.2454 30.1304 32.7191 31.3895C32.8736 31.5202 33.1351 31.5915 33.3609 31.6034C35.2981 31.7697 37.2116 32.0547 39.0894 32.6012C40.7295 33.0763 42.3221 33.6584 43.7364 34.6443C44.5921 35.2382 45.3052 35.9509 45.7331 36.925C46.054 37.6615 45.9945 38.4217 45.9351 39.1819C45.9351 39.2532 45.6618 39.3839 45.5548 39.3601C42.7381 38.683 39.9095 38.9206 37.0809 39.1582C35.0367 39.3245 33.0638 39.859 31.1384 40.548C28.0008 41.6646 25.1247 43.2444 22.5219 45.3113C19.6338 47.6039 17.2687 50.3598 15.4147 53.5432C13.9172 56.1209 12.8119 58.853 12.0275 61.7276L11.98 61.7158ZM45.4478 65.7308C43.2372 67.465 40.9316 69.0924 38.4952 70.4941C35.9993 71.9195 33.5035 73.3331 31.0077 74.7467C29.8905 75.3762 29.8786 75.3762 28.7733 74.7585C26.3963 73.4281 23.9837 72.1452 21.6543 70.7317C19.5388 69.4488 17.5183 68.0115 15.4741 66.6335C15.3434 66.5385 15.2245 66.2772 15.2483 66.1227C15.5573 64.7092 15.8188 63.2719 16.2467 61.8939C16.6983 60.4329 17.2569 58.9837 17.8987 57.5939C19.3367 54.4341 21.3928 51.7021 24.0075 49.4213C25.0177 48.5423 26.1349 47.7702 27.2045 46.9506C27.2402 46.9268 27.2877 46.9268 27.4422 46.8912C27.359 47.2713 27.2996 47.5802 27.2283 47.889C26.8955 49.3263 26.943 50.7755 27.2877 52.201C28.1672 55.8833 30.3065 58.7223 33.1945 61.0624C35.0842 62.5948 37.2235 63.6757 39.5292 64.4241C41.3594 65.018 43.261 65.2318 45.1626 65.4338C45.2933 65.4457 45.4241 65.4575 45.6142 65.4813C45.5548 65.6001 45.531 65.707 45.4597 65.7545L45.4478 65.7308Z" fill="#1D8475"/>
<path d="M3.73169 51.6425L5.37181 56.1089C5.37181 56.1089 6.69103 49.7776 14.5469 43.3394C14.5469 43.3394 9.44832 45.1687 3.73169 51.6544V51.6425Z" fill="#1D8475"/>
<path d="M5.47876 59.0906L8.30737 62.9156C8.30737 62.9156 7.79631 56.4654 13.5367 48.0791C13.5367 48.0791 9.15119 51.2507 5.47876 59.0906Z" fill="#1D8475"/>
<path d="M16.5676 68.7835L20.1093 71.967C20.1093 71.967 18.3147 65.7544 22.2605 56.394C22.2605 56.394 18.5999 60.3853 16.5676 68.7954V68.7835Z" fill="#1D8475"/>
<path d="M21.1668 71.2424L23.9597 72.6797C23.9597 72.6797 21.7729 69.0092 22.7356 62.369C22.7356 62.369 21.0717 65.5287 21.1668 71.2424Z" fill="#1D8475"/>
</svg>
