<svg width="22" height="22" viewBox="0 0 22 22" fill="none" xmlns="http://www.w3.org/2000/svg">
<path d="M11 0C4.939 0 0 4.939 0 11C0 17.061 4.939 22 11 22C17.061 22 22 17.061 22 11C22 4.939 17.061 0 11 0ZM15.785 14.927C15.631 15.191 15.356 15.334 15.07 15.334C14.927 15.334 14.784 15.301 14.652 15.213L11.242 13.178C10.395 12.672 9.768 11.561 9.768 10.582V6.072C9.768 5.621 10.142 5.247 10.593 5.247C11.044 5.247 11.418 5.621 11.418 6.072V10.582C11.418 10.978 11.748 11.561 12.089 11.759L15.499 13.794C15.895 14.025 16.027 14.531 15.785 14.927Z" fill="#182230"/>
</svg>
