<svg width="21" height="20" viewBox="0 0 21 20" fill="none" xmlns="http://www.w3.org/2000/svg">
<path d="M18.0312 5.25013L12.7558 1.55555C11.318 0.547104 9.11075 0.60211 7.72781 1.67473L3.13938 5.2593C2.22352 5.97438 1.5 7.44122 1.5 8.59635V14.9221C1.5 17.2598 3.39582 19.1667 5.73125 19.1667H15.6042C17.9396 19.1667 19.8354 17.269 19.8354 14.9312V8.71553C19.8354 7.47789 19.0386 5.95605 18.0312 5.25013ZM11.3546 15.4996C11.3546 15.8755 11.0432 16.1872 10.6677 16.1872C10.2922 16.1872 9.98081 15.8755 9.98081 15.4996V12.7493C9.98081 12.3734 10.2922 12.0617 10.6677 12.0617C11.0432 12.0617 11.3546 12.3734 11.3546 12.7493V15.4996Z" fill="#182230"/>
</svg>
