<svg width="20" height="20" viewBox="0 0 20 20" fill="none" xmlns="http://www.w3.org/2000/svg">
<path fill-rule="evenodd" clip-rule="evenodd" d="M13.4022 8.02516H12.6663C12.5788 8.5635 12.3847 9.216 12.1555 9.74183C11.8813 10.371 11.4563 11.0852 10.8388 11.7718C11.4322 12.231 12.1563 12.6152 13.0538 12.8152C13.3905 12.891 13.603 13.2243 13.5272 13.5618C13.4622 13.8527 13.2047 14.0502 12.918 14.0502C12.873 14.0502 12.8272 14.046 12.7813 14.036C11.5955 13.771 10.6663 13.2385 9.92884 12.6327C9.19301 13.2168 8.26801 13.736 7.09051 14.0977C7.02967 14.1168 6.96717 14.1252 6.90634 14.1252C6.63967 14.1252 6.39217 13.9527 6.30967 13.6843C6.20801 13.3543 6.39301 13.0043 6.72301 12.9035C7.66551 12.6135 8.41217 12.2102 9.01801 11.7577C8.55967 11.2302 8.22551 10.7085 8.00301 10.2993C7.83801 9.99516 7.95051 9.616 8.25384 9.451C8.55717 9.28683 8.93634 9.39766 9.10134 9.70183C9.31134 10.0885 9.59134 10.5093 9.94134 10.9185C10.8997 9.84683 11.2638 8.691 11.3963 8.02516H6.59801C6.25301 8.02516 5.97301 7.74516 5.97301 7.40016C5.97301 7.05516 6.25301 6.77516 6.59801 6.77516H9.37467V6.50016C9.37467 6.15516 9.65467 5.87516 9.99967 5.87516C10.3447 5.87516 10.6247 6.15516 10.6247 6.50016V6.77516H13.4022C13.7472 6.77516 14.0272 7.05516 14.0272 7.40016C14.0272 7.74516 13.7472 8.02516 13.4022 8.02516ZM13.5147 2.0835H6.48551C3.85217 2.0835 2.08301 3.936 2.08301 6.69183V13.3085C2.08301 16.0643 3.85217 17.9168 6.48551 17.9168H13.5138C16.1472 17.9168 17.9163 16.0643 17.9163 13.3085V6.69183C17.9163 3.936 16.1472 2.0835 13.5147 2.0835Z" fill="#1B6A5F"/>
</svg>
