<svg
   viewBox="0 0 150 150"
   version="1.1"
   fill="#98A2B3"
   width="150"
   height="150"
   xmlns="http://www.w3.org/2000/svg"
   xmlns:svg="http://www.w3.org/2000/svg">
  <path
     d="m 59.613987,100.63695 c -0.0032,3.75298 -6.60088,3.75298 -6.597679,0 v -5.193823 c -0.175339,-0.08398 -0.342864,-0.179345 -0.501092,-0.285243 -2.087872,-1.426222 -4.398452,-2.971296 -6.347134,-4.433172 -2.881265,-2.008594 -6.194026,-4.326205 -8.490687,-5.942589 -1.467839,-1.060848 -3.208728,-1.810205 -5.080496,-2.186871 -0.948923,-0.191927 -1.941642,-0.15489 -2.867343,0.106971 -0.738368,0.24307 -1.333928,0.72596 -1.656381,1.343024 -0.549022,1.263216 -0.744456,2.618561 -0.570687,3.957765 0.206466,1.690002 0.747737,3.33776 1.600705,4.872923 1.13243,2.127982 2.53258,4.144475 4.175747,6.013899 l 0.208787,0.261472 25.054484,32.339554 c 0.28053,0.35639 0.461487,0.76301 0.528927,1.18853 0.205592,2.73928 1.118216,5.40582 2.67248,7.80856 0.744206,1.12174 2.151329,1.80244 3.66074,1.7709 h 39.293792 c 2.39563,-0.0144 4.72813,-0.65752 6.68117,-1.84222 2.55174,-1.62364 4.64457,-3.71526 6.12445,-6.12085 l 0.47323,-0.68934 c 4.87172,-7.1311 9.59031,-14.1077 10.07748,-22.35601 l -0.25056,-9.50815 v -0.41598 -2.246303 c 0.0974,-6.322914 0.20879,-14.143361 -6.56983,-15.12983 h -4.38453 c 0,1.782775 -0.15311,3.565553 -0.27839,5.348329 -0.12527,1.568843 -0.23662,3.090147 -0.23662,4.528253 -0.26763,3.511838 -6.31613,3.511838 -6.58375,0 0,-1.449993 0.12525,-3.137688 0.25053,-4.872922 0.44541,-5.942589 0.94651,-12.800338 -4.63508,-13.65607 h -4.32884 c -0.23612,0.01871 -0.47376,0.01871 -0.70988,0 0,2.151219 -0.12529,4.38563 -0.27839,6.536848 -0.125268,1.568843 -0.236623,3.090145 -0.236623,4.528252 0.304813,3.999591 -6.888563,3.999591 -6.583759,0 0,-1.449991 0.12527,-3.125802 0.250543,-4.872922 0.445412,-5.94259 0.946501,-12.800336 -4.63508,-13.656068 h -4.32886 c -0.291596,0.005 -0.582451,-0.02698 -0.862989,-0.09508 v 10.898706 c 0,3.755716 -6.597679,3.755716 -6.597679,0 V 49.316754 c 0,-4.884807 -2.338419,-7.974954 -5.317118,-9.270438 -1.064719,-0.464497 -2.242407,-0.708773 -3.438034,-0.713111 -1.19156,0.0018 -2.36544,0.246181 -3.424112,0.713111 -2.964781,1.283599 -5.261442,4.385631 -5.261442,9.38929 z M 32.13757,46.583163 c 2.49105,-0.120559 4.588526,1.571784 4.588526,3.702234 0,2.130448 -2.097476,3.822791 -4.588526,3.702233 H 19.874789 c -5.462697,-0.264379 -5.462697,-7.140089 0,-7.404467 z M 44.525622,24.441077 c 3.815639,3.507325 -2.093415,8.507339 -6.16619,5.217593 l -9.74341,-8.319624 c -4.073674,-3.510088 2.092514,-8.727681 6.166188,-5.217594 z m 57.068548,29.522781 c -5.462685,-0.26439 -5.462685,-7.140076 0,-7.404465 h 12.26276 c 2.49105,-0.120566 4.58855,1.57178 4.58855,3.702233 0,2.130452 -2.0975,3.822797 -4.58855,3.702232 z M 95.302709,28.874249 c -4.081442,3.280201 -9.975281,-1.729607 -6.152267,-5.229478 l 9.743411,-8.319623 c 4.081447,-3.280052 9.975097,1.729613 6.152247,5.229477 z M 71.640141,16.026372 c 0.141196,2.12704 -1.84077,3.918021 -4.335819,3.918021 -2.495049,0 -4.477013,-1.790981 -4.335817,-3.918021 V 5.5555303 c 0.309631,-4.6644358 8.362003,-4.6644358 8.671636,0 z m 37.303339,93.369958 c -0.27757,-3.29487 5.66427,-3.29487 5.38671,0 v 10.50649 c -0.24039,2.85374 -5.14632,2.85374 -5.38671,0 z M 92.992132,104.7492 c 0.240424,-2.85369 5.146288,-2.85369 5.386712,0 v 15.15362 c -0.240424,2.85372 -5.146288,2.85372 -5.386712,0 z M 53.016308,88.288251 V 49.39995 c 0,-7.440121 3.897362,-12.241731 8.866501,-14.404836 4.026688,-1.73516 8.77894,-1.73516 12.805628,0 5.024815,2.163105 8.963935,6.964715 8.963935,14.262214 v 12.954843 c 0.281901,-0.06227 0.57181,-0.09422 0.862989,-0.09507 h 4.537647 c 0.248292,-4.21e-4 0.495819,0.0235 0.737715,0.07131 4.950421,0.371189 8.992031,3.534622 9.854764,7.71348 0.435973,-0.173087 0.911133,-0.262346 1.391923,-0.261475 h 4.53763 c 0.24829,-4.21e-4 0.49581,0.02352 0.73771,0.07132 6.51418,0.855733 9.14489,4.278664 10.07747,8.604867 0.17138,-0.01224 0.34365,-0.01224 0.51502,0 h 4.53764 c 0.2483,-4.22e-4 0.49583,0.02351 0.73772,0.0713 12.52724,1.640155 12.31846,12.229847 12.19318,20.763406 0,4.017191 0.1392,8.034391 0.25054,12.051571 0.007,0.10689 0.007,0.21402 0,0.32091 -0.55678,9.65075 -5.67902,17.18594 -10.95438,24.95887 l -0.4454,0.67745 c -1.97538,3.13115 -4.74269,5.8473 -8.10097,7.95118 -3.04842,1.82367 -6.67551,2.81043 -10.39758,2.82867 H 65.460034 c -3.743625,0.12499 -7.267833,-1.50728 -9.186645,-4.25489 -2.040024,-2.92845 -3.286123,-6.20981 -3.646819,-9.60323 L 28.073175,102.25333 C 26.141363,100.03539 24.498479,97.64422 23.173631,95.122218 22.006666,92.983125 21.285973,90.68651 21.044,88.335782 c -0.260239,-2.249318 0.131742,-4.518755 1.14137,-6.608158 0.965005,-1.933682 2.786244,-3.463152 5.066573,-4.254893 2.10382,-0.688297 4.398282,-0.832964 6.597682,-0.415983 2.953025,0.554492 5.704276,1.712786 8.017436,3.37539 1.990439,1.402453 5.275361,3.708178 8.476768,5.94259 l 2.783831,1.913514 z"
     fill="#98A2B3"
     stroke="#98A2B3"
     stroke-width="4.10749"
  />
</svg>
