<svg
   viewBox="0 0 150 150"
   version="1.1"
   fill="#182230"
   width="150"
   height="150"
   xmlns="http://www.w3.org/2000/svg"
   xmlns:svg="http://www.w3.org/2000/svg">
  <path
          stroke="#182230"
          stroke-width="4.10749"
          d="M 67.304688 2.0566406 C 65.214185 2.0566406 63.123565 3.2224696 62.96875 5.5546875 L 62.96875 16.027344 C 62.827554 18.154384 64.809639 19.945312 67.304688 19.945312 C 69.799735 19.945313 71.781821 18.154384 71.640625 16.027344 L 71.640625 5.5546875 C 71.485809 3.2224696 69.395188 2.0566406 67.304688 2.0566406 z M 101.71094 14.259766 C 100.76536 14.286502 99.787348 14.606707 98.894531 15.324219 L 89.150391 23.644531 C 85.327377 27.144402 91.221292 32.155201 95.302734 28.875 L 105.04688 20.554688 C 108.03346 17.820419 105.08798 14.164279 101.71094 14.259766 z M 31.9375 14.960938 C 28.500761 14.811666 25.432677 18.597587 28.615234 21.339844 L 38.359375 29.658203 C 42.43215 32.947949 48.34103 27.948731 44.525391 24.441406 L 34.78125 16.121094 C 33.890134 15.353262 32.899787 15.002733 31.9375 14.960938 z M 68.285156 33.693359 C 66.090421 33.693359 63.896157 34.126561 61.882812 34.994141 C 56.913674 37.157246 53.015625 41.96027 53.015625 49.400391 L 53.015625 88.212891 L 50.34375 86.375 C 47.142343 84.140588 43.857627 81.834094 41.867188 80.431641 C 39.554026 78.769037 36.802634 77.611133 33.849609 77.056641 C 31.650209 76.63966 29.355773 76.784359 27.251953 77.472656 C 24.971624 78.264397 23.150552 79.794834 22.185547 81.728516 C 21.175919 83.817919 20.784683 86.086619 21.044922 88.335938 C 21.286895 90.686666 22.006863 92.983954 23.173828 95.123047 C 24.498676 97.645049 26.140454 100.03597 28.072266 102.25391 L 52.626953 134.08203 C 52.987649 137.47545 54.233411 140.7571 56.273438 143.68555 C 58.192248 146.43316 61.717312 148.06444 65.460938 147.93945 L 104.72656 147.93945 C 108.44863 147.92121 112.07463 146.935 115.12305 145.11133 C 118.48133 143.00745 121.24923 140.29131 123.22461 137.16016 L 123.66992 136.48242 C 128.94528 128.70949 134.06822 121.17419 134.625 111.52344 C 134.632 111.41655 134.632 111.31004 134.625 111.20312 C 134.51366 107.18596 134.37305 103.16758 134.37305 99.150391 C 134.49833 90.616832 134.70693 80.028827 122.17969 78.388672 C 121.9378 78.340882 121.69166 78.315984 121.44336 78.316406 L 116.9043 78.316406 C 116.73293 78.304166 116.562 78.304166 116.39062 78.316406 C 115.45804 73.990203 112.82668 70.566671 106.3125 69.710938 C 106.0706 69.663137 105.82251 69.640204 105.57422 69.640625 L 101.03711 69.640625 C 100.55632 69.639754 100.0805 69.729257 99.644531 69.902344 C 98.781798 65.723486 94.741437 62.558689 89.791016 62.1875 C 89.54912 62.13969 89.301026 62.116764 89.052734 62.117188 L 84.515625 62.117188 C 84.224446 62.118037 83.934245 62.150621 83.652344 62.212891 L 83.652344 49.257812 C 83.652344 41.960313 79.712315 37.157246 74.6875 34.994141 C 72.674156 34.126561 70.479891 33.693359 68.285156 33.693359 z M 114.32031 46.556641 C 114.16812 46.550342 114.01311 46.551058 113.85742 46.558594 L 101.59375 46.558594 C 96.131065 46.822983 96.131065 53.698501 101.59375 53.962891 L 113.85742 53.962891 C 116.34847 54.083456 118.44531 52.392171 118.44531 50.261719 C 118.44531 48.264419 116.60324 46.651124 114.32031 46.556641 z M 32.599609 46.582031 C 32.44741 46.575739 32.292409 46.576449 32.136719 46.583984 L 19.875 46.583984 C 14.412303 46.848362 14.412303 53.723902 19.875 53.988281 L 32.136719 53.988281 C 34.627769 54.108839 36.726562 52.415604 36.726562 50.285156 C 36.726562 48.287859 34.882607 46.676422 32.599609 46.582031 z M 116.84961 83.949219 L 117.35156 83.949219 L 116.84766 84.201172 C 116.84831 84.117656 116.84961 84.032735 116.84961 83.949219 z M 95.78125 100.53125 C 100.09375 100.53125 100.4375 104.71875 100.4375 104.71875 L 100.4375 120.0625 C 100.4375 120.8125 99.46875 124.12495 95.4375 124.03125 C 91.40625 123.9375 90.90625 120.0625 90.90625 120.0625 L 90.90625 105.21875 C 90.90625 103.875 91.46875 100.53125 95.78125 100.53125 z M 111.72461 104.86523 C 116.03711 104.86523 116.38086 108.2832 116.38086 108.2832 L 116.38086 120.8125 C 116.38086 121.42487 115.41211 124.12923 111.38086 124.05273 C 107.34961 123.97618 106.84961 120.8125 106.84961 120.8125 L 106.84961 108.69141 C 106.84961 107.59423 107.41211 104.86523 111.72461 104.86523 z " />
</svg>
