<?xml version="1.0" encoding="UTF-8" standalone="no"?>
<svg
   id="Layer_1"
   data-name="Layer 1"
   viewBox="0 0 150 150"
   version="1.1"
   sodipodi:docname="manual-active.svg"
   width="150"
   height="150"
   inkscape:version="1.4.2 (2aeb623e1d, 2025-05-12)"
   xmlns:inkscape="http://www.inkscape.org/namespaces/inkscape"
   xmlns:sodipodi="http://sodipodi.sourceforge.net/DTD/sodipodi-0.dtd"
   xmlns="http://www.w3.org/2000/svg"
   xmlns:svg="http://www.w3.org/2000/svg"
   xmlns:rdf="http://www.w3.org/1999/02/22-rdf-syntax-ns#"
   xmlns:cc="http://creativecommons.org/ns#"
   xmlns:dc="http://purl.org/dc/elements/1.1/">
  <sodipodi:namedview
     id="namedview1"
     pagecolor="#505050"
     bordercolor="#ffffff"
     borderopacity="1"
     inkscape:showpageshadow="0"
     inkscape:pageopacity="0"
     inkscape:pagecheckerboard="1"
     inkscape:deskcolor="#505050"
     inkscape:zoom="4"
     inkscape:cx="64.5"
     inkscape:cy="68.125"
     inkscape:window-width="1860"
     inkscape:window-height="1043"
     inkscape:window-x="0"
     inkscape:window-y="0"
     inkscape:window-maximized="1"
     inkscape:current-layer="Layer_1" />
  <defs
     id="defs1">
    <style
       id="style1">.cls-1{fill:#231f20;}</style>
  </defs>
  <title
     id="title1">hand-mouse-cursor</title>
  <metadata
     id="metadata1">
    <rdf:RDF>
      <cc:Work
         rdf:about="">
        <dc:title>hand-mouse-cursor</dc:title>
      </cc:Work>
    </rdf:RDF>
  </metadata>
  <path
     id="path2"
     style="stroke-width:0"
     d="M 75.003906 0.005859375 A 74.997536 74.99881 0 0 0 0.005859375 75.003906 A 74.997536 74.99881 0 0 0 75.003906 150.00391 A 74.997536 74.99881 0 0 0 150.00195 75.003906 A 74.997536 74.99881 0 0 0 75.003906 0.005859375 z M 68.353516 13.625 A 3.653944 3.12 0 0 1 72.001953 16.568359 L 72.001953 25.378906 A 3.653944 3.12 0 1 1 64.705078 25.378906 L 64.705078 16.568359 A 3.653944 3.12 0 0 1 68.353516 13.625 z M 97.232422 23.945312 A 3.653944 3.12 0 0 1 100.10938 29.189453 L 91.910156 36.189453 A 3.653944 3.12 0 0 1 86.734375 31.789062 L 94.931641 24.789062 A 3.653944 3.12 0 0 1 97.232422 23.945312 z M 38.287109 24.537109 A 3.652039 3.1183734 0 0 1 40.990234 25.458984 L 49.1875 32.458984 A 3.653944 3.12 0 0 1 44 36.849609 L 35.802734 29.849609 A 3.652039 3.1183734 0 0 1 38.287109 24.537109 z M 68.380859 40.267578 A 11.957298 10.21 0 0 1 74.566406 41.339844 C 78.794206 43.159844 82.109375 47.199844 82.109375 53.339844 L 82.109375 64.238281 A 2.939551 2.51 0 0 1 82.833984 64.158203 L 86.652344 64.158203 A 2.7287466 2.33 0 0 1 87.273438 64.21875 A 9.2402623 7.89 0 0 1 95.564453 70.708984 A 2.7638807 2.36 0 0 1 96.736328 70.488281 L 100.55469 70.488281 A 2.7287466 2.33 0 0 1 101.17383 70.548828 C 106.65475 71.268828 108.86964 74.149064 109.6543 77.789062 A 2.5999216 2.22 0 0 1 110.08789 77.789062 L 113.9043 77.789062 A 2.7287466 2.33 0 0 1 114.52539 77.849609 C 125.06562 79.229609 124.89056 88.138359 124.78516 95.318359 C 124.78516 98.698359 124.90241 102.07898 124.99609 105.45898 A 2.8458601 2.43 0 0 1 124.99609 105.72852 C 124.52763 113.84852 120.2179 120.18852 115.7793 126.72852 L 115.4043 127.29883 A 23.598389 20.15 0 0 1 108.58789 133.98828 A 15.400438 13.15 0 0 1 99.839844 136.36914 L 66.802734 136.36914 A 8.6078488 7.35 0 0 1 59.072266 132.78906 A 22.485809 19.2 0 0 1 56.003906 124.70898 L 35.345703 97.929688 A 37.476349 32 0 0 1 31.222656 91.929688 A 19.979578 17.06 0 0 1 29.431641 86.21875 A 13.573466 11.59 0 0 1 30.390625 80.658203 A 7.8466105 6.7 0 0 1 34.654297 77.078125 A 9.6618712 8.25 0 0 1 40.205078 76.728516 A 15.716644 13.42 0 0 1 46.951172 79.568359 C 48.625896 80.748359 51.390372 82.688359 54.083984 84.568359 L 56.332031 86.115234 L 56.332031 53.458984 C 56.332031 47.198984 59.612014 43.159844 63.792969 41.339844 A 11.957298 10.21 0 0 1 68.380859 40.267578 z M 69.191406 44.988281 A 6.3007112 5.38 0 0 0 66.310547 45.589844 C 63.816027 46.669844 61.882813 49.278281 61.882812 53.488281 L 61.882812 96.568359 A 2.775592 2.3700001 0 0 1 56.332031 96.568359 L 56.332031 92.199219 A 3.3026032 2.82 0 0 1 55.910156 91.958984 C 54.153453 90.758984 52.209902 89.458516 50.570312 88.228516 C 48.146062 86.538516 45.358156 84.588516 43.425781 83.228516 A 10.259152 8.76 0 0 0 39.150391 81.388672 A 4.4268937 3.78 0 0 0 36.738281 81.478516 A 2.5179421 2.15 0 0 0 35.345703 82.609375 A 8.5141579 7.27 0 0 0 34.865234 85.939453 A 14.779736 12.62 0 0 0 36.210938 90.039062 A 31.761206 27.12 0 0 0 39.724609 95.099609 L 39.900391 95.318359 L 60.980469 122.5293 A 2.7638807 2.36 0 0 1 61.425781 123.5293 A 18.339989 15.66 0 0 0 63.675781 130.09961 A 3.4431396 2.94 0 0 0 66.755859 131.58984 L 99.816406 131.58984 A 9.8258302 8.39 0 0 0 105.4375 130.03906 A 17.906668 15.29 0 0 0 110.58984 124.88867 L 110.98828 124.30859 C 115.08726 118.30859 119.05885 112.43805 119.46875 105.49805 L 119.25781 97.498047 L 119.25781 97.148438 L 119.25781 95.259766 C 119.33981 89.939766 119.43195 83.359297 113.72852 82.529297 L 110.04102 82.529297 C 110.04102 84.029297 109.91204 85.529297 109.80664 87.029297 C 109.70123 88.349297 109.60742 89.629844 109.60742 90.839844 A 2.7755919 2.37 0 0 1 104.06836 90.839844 C 104.06836 89.619844 104.17194 88.198281 104.27734 86.738281 C 104.65211 81.738281 105.07517 75.968047 100.37891 75.248047 L 96.736328 75.248047 A 3.2323351 2.76 0 0 1 96.138672 75.248047 C 96.138672 77.058047 96.033122 78.938047 95.904297 80.748047 C 95.798895 82.068047 95.705078 83.348594 95.705078 84.558594 A 2.7755919 2.37 0 1 1 90.166016 84.558594 C 90.166016 83.338594 90.27155 81.928984 90.376953 80.458984 C 90.751716 75.458984 91.172816 69.68875 86.476562 68.96875 L 82.833984 68.96875 A 2.4710966 2.11 0 0 1 82.109375 68.888672 L 82.109375 78.058594 A 2.7763672 2.3706619 0 0 1 76.556641 78.058594 L 76.556641 53.388672 C 76.556641 49.278672 74.590215 46.679844 72.083984 45.589844 A 6.4178248 5.48 0 0 0 69.191406 44.988281 z M 97.205078 51.068359 L 107.52148 51.068359 A 3.653944 3.12 0 1 1 107.52148 57.298828 L 97.205078 57.298828 A 3.653944 3.12 0 0 1 97.205078 51.068359 z M 28.447266 51.089844 L 38.765625 51.089844 A 3.653944 3.12 0 1 1 38.765625 57.318359 L 28.447266 57.318359 A 3.653944 3.12 0 0 1 28.447266 51.089844 z M 92.232422 98.228516 A 2.2720037 1.94 0 0 1 94.5 100.0293 L 94.5 112.7793 A 2.2720037 1.94 0 0 1 89.966797 112.7793 L 89.966797 100.0293 A 2.2720037 1.94 0 0 1 92.232422 98.228516 z M 105.6543 101.85938 A 2.2720037 1.94 0 0 1 107.91992 103.93945 L 107.91992 112.7793 A 2.2720037 1.94 0 0 1 103.38867 112.7793 L 103.38867 103.93945 A 2.2720037 1.94 0 0 1 105.6543 101.85938 z " />
</svg>
