<svg width="21" height="20" viewBox="0 0 21 20" fill="none" xmlns="http://www.w3.org/2000/svg">
<path d="M4.50024 8.33329H6.16691C7.83358 8.33329 8.66691 7.49996 8.66691 5.83329V4.16663C8.66691 2.49996 7.83358 1.66663 6.16691 1.66663H4.50024C2.83358 1.66663 2.00024 2.49996 2.00024 4.16663V5.83329C2.00024 7.49996 2.83358 8.33329 4.50024 8.33329Z" stroke="#98A2B3" stroke-width="2" stroke-miterlimit="10" stroke-linecap="round" stroke-linejoin="round"/>
<path d="M14.5002 8.33329H16.1669C17.8336 8.33329 18.6669 7.49996 18.6669 5.83329V4.16663C18.6669 2.49996 17.8336 1.66663 16.1669 1.66663H14.5002C12.8336 1.66663 12.0002 2.49996 12.0002 4.16663V5.83329C12.0002 7.49996 12.8336 8.33329 14.5002 8.33329Z" stroke="#98A2B3" stroke-width="2" stroke-miterlimit="10" stroke-linecap="round" stroke-linejoin="round"/>
<path d="M14.5002 18.3333H16.1669C17.8336 18.3333 18.6669 17.5 18.6669 15.8333V14.1666C18.6669 12.5 17.8336 11.6666 16.1669 11.6666H14.5002C12.8336 11.6666 12.0002 12.5 12.0002 14.1666V15.8333C12.0002 17.5 12.8336 18.3333 14.5002 18.3333Z" stroke="#98A2B3" stroke-width="2" stroke-miterlimit="10" stroke-linecap="round" stroke-linejoin="round"/>
<path d="M4.50024 18.3333H6.16691C7.83358 18.3333 8.66691 17.5 8.66691 15.8333V14.1666C8.66691 12.5 7.83358 11.6666 6.16691 11.6666H4.50024C2.83358 11.6666 2.00024 12.5 2.00024 14.1666V15.8333C2.00024 17.5 2.83358 18.3333 4.50024 18.3333Z" stroke="#98A2B3" stroke-width="2" stroke-miterlimit="10" stroke-linecap="round" stroke-linejoin="round"/>
</svg>
