<svg width="21" height="20" viewBox="0 0 21 20" fill="none" xmlns="http://www.w3.org/2000/svg">
<path d="M5.97008 0.833496H4.22841C2.22091 0.833496 1.16675 1.88766 1.16675 3.886V5.62766C1.16675 7.626 2.22091 8.68016 4.21925 8.68016H5.96091C7.95925 8.68016 9.01341 7.626 9.01341 5.62766V3.886C9.02258 1.88766 7.96841 0.833496 5.97008 0.833496Z" fill="#182230"/>
<path d="M16.448 0.833496H14.7063C12.708 0.833496 11.6538 1.88766 11.6538 3.886V5.62766C11.6538 7.626 12.708 8.68016 14.7063 8.68016H16.448C18.4463 8.68016 19.5005 7.626 19.5005 5.62766V3.886C19.5005 1.88766 18.4463 0.833496 16.448 0.833496Z" fill="#182230"/>
<path d="M16.448 11.3105H14.7063C12.708 11.3105 11.6538 12.3647 11.6538 14.363V16.1047C11.6538 18.103 12.708 19.1572 14.7063 19.1572H16.448C18.4463 19.1572 19.5005 18.103 19.5005 16.1047V14.363C19.5005 12.3647 18.4463 11.3105 16.448 11.3105Z" fill="#182230"/>
<path d="M5.97008 11.3105H4.22841C2.22091 11.3105 1.16675 12.3647 1.16675 14.363V16.1047C1.16675 18.1122 2.22091 19.1664 4.21925 19.1664H5.96091C7.95925 19.1664 9.01341 18.1122 9.01341 16.1139V14.3722C9.02258 12.3647 7.96841 11.3105 5.97008 11.3105Z" fill="#182230"/>
</svg>
