<svg xmlns="http://www.w3.org/2000/svg" width="16" height="18" viewBox="0 0 16 18" fill="none">
<path d="M6.30298 15.0231C6.71957 14.935 9.25806 14.935 9.67465 15.0231C10.0308 15.1053 10.4159 15.2975 10.4159 15.7172C10.3952 16.1167 10.1608 16.4709 9.83698 16.6958C9.41708 17.0232 8.92429 17.2305 8.40913 17.3052C8.12423 17.3421 7.84429 17.3429 7.56932 17.3052C7.05334 17.2305 6.56055 17.0232 6.14147 16.695C5.81681 16.4709 5.58243 16.1167 5.56172 15.7172C5.56172 15.2975 5.94684 15.1053 6.30298 15.0231ZM8.03801 0.666504C9.77147 0.666504 11.5422 1.48902 12.594 2.85372C13.2765 3.73247 13.5896 4.61038 13.5896 5.97509V6.33011C13.5896 7.37672 13.8662 7.99361 14.4749 8.7045C14.9362 9.22822 15.0837 9.9005 15.0837 10.6299C15.0837 11.3584 14.8443 12.05 14.3648 12.6114C13.737 13.2846 12.8516 13.7143 11.948 13.789C10.6386 13.9006 9.32837 13.9946 8.00074 13.9946C6.67228 13.9946 5.36287 13.9384 4.05345 13.789C3.14904 13.7143 2.26367 13.2846 1.63671 12.6114C1.15718 12.05 0.916992 11.3584 0.916992 10.6299C0.916992 9.9005 1.06524 9.22822 1.52573 8.7045C2.15352 7.99361 2.41193 7.37672 2.41193 6.33011V5.97509C2.41193 4.57345 2.76143 3.65694 3.48115 2.75972C4.55121 1.45125 6.26645 0.666504 7.96347 0.666504H8.03801Z" fill="#1B6A5F"/>
</svg>