<svg
   width="20"
   height="20"
   viewBox="0 0 20 20"
   fill="#98A2B3"
   version="1.1"
   xmlns="http://www.w3.org/2000/svg"
   xmlns:svg="http://www.w3.org/2000/svg"
>
  <path
          fill="#98A2B3"
          d="M 10 0.66601562 C 4.8589642 0.66601562 0.66601562 4.8589362 0.66601562 10 C 0.66601562 15.141099 4.8589685 19.333984 10 19.333984 C 10.742852 19.333984 11.466553 19.24715 12.160156 19.082031 L 12.160156 17.011719 C 11.477697 17.220885 10.751982 17.333984 10 17.333984 C 5.9410915 17.333984 2.6660156 14.058981 2.6660156 10 C 2.6660156 5.9410638 5.9410958 2.6660156 10 2.6660156 C 14.058938 2.6660156 17.333984 5.9410725 17.333984 10 C 17.333984 11.010183 17.130926 11.971244 16.763672 12.845703 L 18.890625 12.845703 C 19.179252 11.947912 19.333984 10.991889 19.333984 10 C 19.333984 4.8589275 15.141062 0.66601565 10 0.66601562 z M 9.6914062 5.2578125 C 9.1391216 5.2578125 8.6914062 5.7055278 8.6914062 6.2578125 L 8.6914062 9.6757812 C 8.6914062 10.666423 9.1478826 11.464886 9.9980469 11.96875 L 12.578125 13.507812 C 12.817115 13.650507 13.09205 13.681819 13.341797 13.617188 L 13.341797 13.607422 L 13.375 13.607422 C 13.607489 13.538747 13.815083 13.386616 13.949219 13.162109 C 14.232285 12.688016 14.077525 12.074222 13.603516 11.791016 L 11.021484 10.25 C 11.020184 10.249346 11.018882 10.248695 11.017578 10.248047 L 11.015625 10.246094 C 10.96149 10.204674 10.7074 9.7607552 10.691406 9.6796875 L 10.691406 9.6777344 L 10.691406 9.6757812 L 10.691406 6.2578125 C 10.691406 5.7055278 10.243691 5.2578126 9.6914062 5.2578125 z M 15.308594 13.373047 L 15.308594 15.603516 L 12.992188 15.603516 L 12.992188 16.609375 L 15.308594 16.609375 L 15.308594 18.839844 L 16.363281 18.839844 L 16.363281 16.609375 L 18.679688 16.609375 L 18.679688 15.603516 L 16.363281 15.603516 L 16.363281 13.373047 L 15.308594 13.373047 z " />
</svg>
