<svg
   width="22"
   height="22"
   viewBox="0 0 22 22"
   fill="#182230"
   version="1.1"
   xmlns="http://www.w3.org/2000/svg"
   xmlns:svg="http://www.w3.org/2000/svg"
>
  <path
     fill="#182230"
     d="M 11 0 C 4.939 0 0 4.939 0 11 C 0 17.061 4.939 22 11 22 C 13.299292 22 15.437114 21.289356 17.205078 20.076172 L 17.205078 21.679688 L 19.380859 21.679688 L 19.380859 19.460938 L 21.505859 19.460938 L 21.505859 17.417969 L 19.925781 17.417969 C 21.23005 15.609945 22 13.392377 22 11 C 22 4.939 17.061 0 11 0 z M 10.59375 5.2460938 C 11.04475 5.2460938 11.417969 5.6212656 11.417969 6.0722656 L 11.417969 10.582031 C 11.417969 10.978031 11.748844 11.561766 12.089844 11.759766 L 15.498047 13.794922 C 15.894047 14.025922 16.027156 14.531734 15.785156 14.927734 C 15.631156 15.191734 15.356313 15.333984 15.070312 15.333984 C 14.927313 15.333984 14.784344 15.300891 14.652344 15.212891 L 11.242188 13.177734 C 10.395186 12.671734 9.7675781 11.561031 9.7675781 10.582031 L 9.7675781 6.0722656 C 9.7675781 5.6212656 10.14275 5.2460936 10.59375 5.2460938 z M 17.755859 15.707031 L 18.810547 15.707031 L 18.810547 17.9375 L 19.527344 17.9375 L 21.113281 17.9375 L 21.126953 17.9375 L 21.126953 18.943359 L 21.113281 18.943359 L 18.810547 18.943359 L 18.810547 21.173828 L 18.796875 21.173828 L 17.755859 21.173828 L 17.742188 21.173828 L 17.742188 19.683594 C 17.746533 19.680211 17.751519 19.677218 17.755859 19.673828 L 17.755859 18.943359 L 15.439453 18.943359 L 15.439453 17.9375 L 17.755859 17.9375 L 17.755859 15.707031 z " />
</svg>
