<svg width="32" height="32" viewBox="0 0 32 32" fill="none" xmlns="http://www.w3.org/2000/svg">
<path d="M3.2002 4C3.2002 1.79086 4.99106 0 7.2002 0H19.2002L28.8002 9.6V28C28.8002 30.2091 27.0093 32 24.8002 32H7.2002C4.99106 32 3.2002 30.2091 3.2002 28V4Z" fill="#D92D20"/>
<path opacity="0.3" d="M19.2002 0L28.8002 9.6H23.2002C20.9911 9.6 19.2002 7.80914 19.2002 5.6V0Z" fill="white"/>
<path d="M7.74926 27.3999V20.8544H10.3316C10.8281 20.8544 11.251 20.9493 11.6005 21.1389C11.9499 21.3264 12.2162 21.5874 12.3995 21.9219C12.5848 22.2543 12.6775 22.6378 12.6775 23.0725C12.6775 23.5071 12.5838 23.8907 12.3963 24.2231C12.2088 24.5554 11.9371 24.8143 11.5813 24.9997C11.2276 25.1851 10.7993 25.2777 10.2965 25.2777H8.65054V24.1687H10.0728C10.3391 24.1687 10.5586 24.1229 10.7312 24.0313C10.9059 23.9375 11.0358 23.8086 11.1211 23.6446C11.2084 23.4784 11.2521 23.2877 11.2521 23.0725C11.2521 22.8552 11.2084 22.6655 11.1211 22.5036C11.0358 22.3395 10.9059 22.2128 10.7312 22.1233C10.5564 22.0316 10.3348 21.9858 10.0664 21.9858H9.13314V27.3999H7.74926ZM15.8967 27.3999H13.5764V20.8544H15.9159C16.5743 20.8544 17.141 20.9855 17.6162 21.2476C18.0913 21.5075 18.4567 21.8814 18.7124 22.3694C18.9702 22.8573 19.0991 23.4411 19.0991 24.1208C19.0991 24.8026 18.9702 25.3885 18.7124 25.8786C18.4567 26.3687 18.0892 26.7447 17.6098 27.0068C17.1325 27.2689 16.5615 27.3999 15.8967 27.3999ZM14.9603 26.2142H15.8392C16.2483 26.2142 16.5924 26.1417 16.8715 25.9968C17.1528 25.8498 17.3637 25.6229 17.5043 25.3161C17.6471 25.0071 17.7185 24.6087 17.7185 24.1208C17.7185 23.6371 17.6471 23.2419 17.5043 22.9351C17.3637 22.6282 17.1538 22.4024 16.8747 22.2575C16.5956 22.1126 16.2515 22.0402 15.8424 22.0402H14.9603V26.2142ZM20.1243 27.3999V20.8544H24.4581V21.9954H21.5081V23.5551H24.1704V24.6961H21.5081V27.3999H20.1243Z" fill="white"/>
</svg>
