<svg width="20" height="20" viewBox="0 0 20 20" fill="none" xmlns="http://www.w3.org/2000/svg">
<path d="M6.97967 13.0136L2.26562 17.7276M9.74441 5.53483L8.44367 6.83556C8.33757 6.94167 8.28452 6.99472 8.22407 7.03687C8.17042 7.07429 8.11255 7.10526 8.05166 7.12915C7.98306 7.15605 7.90949 7.17077 7.76235 7.2002L4.70863 7.81094C3.91504 7.96966 3.51825 8.04902 3.33262 8.25823C3.1709 8.44049 3.09705 8.68439 3.13051 8.92575C3.16891 9.20279 3.45505 9.48893 4.02731 10.0612L9.93209 15.966C10.5044 16.5382 10.7905 16.8244 11.0675 16.8628C11.3089 16.8962 11.5528 16.8224 11.7351 16.6607C11.9443 16.475 12.0236 16.0782 12.1823 15.2846L12.7931 12.2309C12.8225 12.0838 12.8372 12.0102 12.8641 11.9416C12.888 11.8807 12.919 11.8229 12.9564 11.7692C12.9986 11.7088 13.0516 11.6557 13.1577 11.5496L14.4585 10.2489C14.5263 10.181 14.5602 10.1471 14.5975 10.1175C14.6306 10.0912 14.6657 10.0674 14.7024 10.0465C14.7438 10.0228 14.7879 10.0039 14.876 9.96615L16.9547 9.07531C17.5611 8.81542 17.8643 8.68547 18.002 8.47549C18.1225 8.29185 18.1656 8.0681 18.1219 7.85288C18.072 7.60676 17.8388 7.3735 17.3723 6.90697L13.0863 2.62103C12.6198 2.15451 12.3865 1.92124 12.1404 1.87135C11.9252 1.82772 11.7014 1.87081 11.5178 1.99126C11.3078 2.12899 11.1779 2.43219 10.918 3.03861L10.0271 5.11724C9.98934 5.20542 9.97044 5.24951 9.94682 5.29086C9.92584 5.32758 9.90209 5.36266 9.87578 5.39578C9.84617 5.43307 9.81225 5.46699 9.74441 5.53483Z" stroke="#DC6803" stroke-width="1.4" stroke-linecap="round" stroke-linejoin="round"/>
</svg>
