<svg width="89" height="29" viewBox="0 0 89 29" fill="none" xmlns="http://www.w3.org/2000/svg">
<path d="M28.6244 16.3172C26.1829 16.3172 24.193 18.158 24.193 20.6934C24.193 23.2133 26.1829 25.0695 28.6244 25.0695C31.0669 25.0695 33.0568 23.2133 33.0568 20.6934C33.0557 18.158 31.0658 16.3172 28.6244 16.3172ZM28.6244 23.347C27.2864 23.347 26.1331 22.2532 26.1331 20.6944C26.1331 19.1191 27.2874 18.0417 28.6244 18.0417C29.9624 18.0417 31.1157 19.1191 31.1157 20.6944C31.1157 22.2522 29.9624 23.347 28.6244 23.347ZM18.9562 16.3172C16.5147 16.3172 14.5248 18.158 14.5248 20.6934C14.5248 23.2133 16.5147 25.0695 18.9562 25.0695C21.3986 25.0695 23.3886 23.2133 23.3886 20.6934C23.3886 18.158 21.3986 16.3172 18.9562 16.3172ZM18.9562 23.347C17.6181 23.347 16.4649 22.2532 16.4649 20.6944C16.4649 19.1191 17.6192 18.0417 18.9562 18.0417C20.2942 18.0417 21.4474 19.1191 21.4474 20.6944C21.4485 22.2522 20.2942 23.347 18.9562 23.347ZM7.45687 17.661V19.5173H11.9391C11.8052 20.5616 11.4543 21.3241 10.9187 21.854C10.2668 22.5002 9.24644 23.2132 7.45687 23.2132C4.69779 23.2132 2.54077 21.0082 2.54077 18.2733C2.54077 15.5383 4.69779 13.3333 7.45687 13.3333C8.94541 13.3333 10.0322 13.9136 10.8346 14.6596L12.156 13.3497C11.035 12.2889 9.54747 11.4771 7.45687 11.4771C3.67741 11.4771 0.5 14.5269 0.5 18.2733C0.5 22.0197 3.67741 25.0695 7.45687 25.0695C9.4966 25.0695 11.036 24.4058 12.2391 23.1628C13.4764 21.9363 13.8615 20.2118 13.8615 18.8196C13.8615 18.3895 13.8283 17.9913 13.7608 17.66H7.45687V17.661ZM54.4879 19.1026C54.1205 18.1251 52.9994 16.3172 50.7085 16.3172C48.4341 16.3172 46.5439 18.0911 46.5439 20.6934C46.5439 23.1464 48.4175 25.0695 50.9254 25.0695C52.9485 25.0695 54.1194 23.843 54.6052 23.1299L53.1001 22.1349C52.5987 22.8644 51.9126 23.345 50.9254 23.345C49.9393 23.345 49.2365 22.8974 48.785 22.0186L54.6883 19.5985L54.4879 19.1026ZM48.4674 20.5616C48.4175 18.8701 49.7888 18.0088 50.7759 18.0088C51.5451 18.0088 52.197 18.3906 52.415 18.9369L48.4674 20.5616ZM43.6685 24.805H45.6076V11.9421H43.6685V24.805ZM40.4901 17.2958H40.4237C39.9887 16.7813 39.1521 16.3172 38.0995 16.3172C35.8916 16.3172 33.8685 18.2403 33.8685 20.7108C33.8685 23.1639 35.8916 25.0705 38.0995 25.0705C39.1531 25.0705 39.9887 24.6064 40.4237 24.0765H40.4901V24.7063C40.4901 26.3804 39.587 27.2755 38.1327 27.2755C36.9452 27.2755 36.2093 26.4308 35.9082 25.7177L34.2194 26.4143C34.7041 27.5739 35.9913 29.0001 38.1327 29.0001C40.407 29.0001 42.3305 27.6737 42.3305 24.4408V16.5837H40.4911V17.2958H40.4901ZM38.2666 23.347C36.9286 23.347 35.8086 22.2357 35.8086 20.7108C35.8086 19.1684 36.9286 18.0417 38.2666 18.0417C39.587 18.0417 40.624 19.1684 40.624 20.7108C40.624 22.2357 39.587 23.347 38.2666 23.347ZM63.5748 11.9421H58.9338V24.805H60.8697V19.9319H63.5738C65.7204 19.9319 67.8318 18.3916 67.8318 15.9375C67.8318 13.4835 65.7215 11.9421 63.5748 11.9421ZM63.6247 18.1416H60.8697V13.7325H63.6247C65.0727 13.7325 65.8948 14.9209 65.8948 15.9375C65.8948 16.9336 65.0727 18.1416 63.6247 18.1416ZM75.5952 16.2946C74.1928 16.2946 72.7406 16.9068 72.1396 18.264L73.8586 18.975C74.2261 18.264 74.9112 18.0315 75.6284 18.0315C76.6301 18.0315 77.6484 18.6272 77.665 19.686V19.8187C77.3142 19.6202 76.5627 19.3228 75.645 19.3228C73.7922 19.3228 71.905 20.3322 71.905 22.2183C71.905 23.9397 73.4247 25.0479 75.1271 25.0479C76.4288 25.0479 77.1471 24.4686 77.5976 23.7895H77.664V24.7824H79.5345V19.8506C79.5356 17.5684 77.8145 16.2946 75.5952 16.2946ZM75.3606 23.3439C74.7274 23.3439 73.842 23.0291 73.842 22.2512C73.842 21.2582 74.9444 20.8775 75.8962 20.8775C76.7464 20.8775 77.1481 21.0597 77.665 21.3076C77.5145 22.5002 76.4796 23.3439 75.3606 23.3439ZM86.3461 16.5755L84.1257 22.1524H84.0593L81.7549 16.5755H79.6684L83.1241 24.3698L81.1539 28.7058H83.1739L88.5 16.5755H86.3461ZM68.901 24.805H70.8369V11.9421H68.901V24.805Z" fill="white"/>
<path d="M7.11895 4.47574C7.11895 5.338 6.86152 6.02431 6.34562 6.53673C5.76017 7.14587 4.99618 7.45044 4.0578 7.45044C3.15887 7.45044 2.39384 7.14175 1.76583 6.52438C1.13679 5.90598 0.822266 5.14044 0.822266 4.22674C0.822266 3.312 1.13679 2.54646 1.76583 1.92909C2.39384 1.31069 3.15887 1.00201 4.0578 1.00201C4.50416 1.00201 4.93079 1.08844 5.33562 1.26028C5.74149 1.43314 6.06639 1.6626 6.30929 1.94967L5.76225 2.49296C5.35015 2.00421 4.78235 1.76035 4.05676 1.76035C3.40073 1.76035 2.83396 1.98877 2.35543 2.44563C1.8769 2.90248 1.63816 3.49618 1.63816 4.22571C1.63816 4.95523 1.8769 5.54894 2.35543 6.00579C2.83396 6.46264 3.40073 6.69107 4.05676 6.69107C4.75224 6.69107 5.3325 6.46162 5.7965 6.00168C6.09753 5.70225 6.27192 5.28553 6.31863 4.7515H4.05676V4.00963H7.07432C7.10546 4.17118 7.11895 4.32655 7.11895 4.47574Z" fill="white"/>
<path d="M11.9044 1.89725H9.06847V3.85432H11.6262V4.59619H9.06847V6.55325H11.9044V7.31262H8.26815V1.13892H11.9044V1.89725Z" fill="white"/>
<path d="M15.2789 7.31262H14.4786V1.89725H12.7388V1.13892H17.0186V1.89725H15.2789V7.31262Z" fill="white"/>
<path d="M20.115 7.31262V1.13892H20.9153V7.31262H20.115Z" fill="white"/>
<path d="M24.4645 7.31262H23.6642V1.89725H21.9245V1.13892H26.2043V1.89725H24.4645V7.31262Z" fill="white"/>
<path d="M34.3059 6.51517C33.6934 7.13871 32.9325 7.45049 32.0222 7.45049C31.1118 7.45049 30.351 7.13871 29.7396 6.51517C29.1271 5.89163 28.8219 5.12815 28.8219 4.22576C28.8219 3.32337 29.1271 2.55989 29.7396 1.93634C30.351 1.3128 31.1118 1 32.0222 1C32.9274 1 33.6872 1.31383 34.3017 1.94046C34.9162 2.56709 35.2235 3.32851 35.2235 4.22576C35.2235 5.12815 34.9173 5.89163 34.3059 6.51517ZM30.3302 5.99761C30.7911 6.46064 31.3547 6.69112 32.0222 6.69112C32.6896 6.69112 33.2543 6.45961 33.7142 5.99761C34.1751 5.53458 34.4066 4.94396 34.4066 4.22576C34.4066 3.50755 34.1751 2.91693 33.7142 2.45391C33.2543 1.99088 32.6896 1.76039 32.0222 1.76039C31.3547 1.76039 30.7911 1.99191 30.3302 2.45391C29.8704 2.91693 29.6389 3.50755 29.6389 4.22576C29.6389 4.94396 29.8704 5.53458 30.3302 5.99761Z" fill="white"/>
<path d="M36.3466 7.31262V1.13892H37.3203L40.3472 5.94103H40.3815L40.3472 4.75156V1.13892H41.1475V7.31262H40.3119L37.1449 2.27694H37.1106L37.1449 3.4664V7.31262H36.3466Z" fill="white"/>
<path d="M7.11895 4.47574C7.11895 5.338 6.86152 6.02431 6.34562 6.53673C5.76017 7.14587 4.99618 7.45044 4.0578 7.45044C3.15887 7.45044 2.39384 7.14175 1.76583 6.52438C1.13679 5.90598 0.822266 5.14044 0.822266 4.22674C0.822266 3.312 1.13679 2.54646 1.76583 1.92909C2.39384 1.31069 3.15887 1.00201 4.0578 1.00201C4.50416 1.00201 4.93079 1.08844 5.33562 1.26028C5.74149 1.43314 6.06639 1.6626 6.30929 1.94967L5.76225 2.49296C5.35015 2.00421 4.78235 1.76035 4.05676 1.76035C3.40073 1.76035 2.83396 1.98877 2.35543 2.44563C1.8769 2.90248 1.63816 3.49618 1.63816 4.22571C1.63816 4.95523 1.8769 5.54894 2.35543 6.00579C2.83396 6.46264 3.40073 6.69107 4.05676 6.69107C4.75224 6.69107 5.3325 6.46162 5.7965 6.00168C6.09753 5.70225 6.27192 5.28553 6.31863 4.7515H4.05676V4.00963H7.07432C7.10546 4.17118 7.11895 4.32655 7.11895 4.47574Z" stroke="white" stroke-width="0.2" stroke-miterlimit="10"/>
<path d="M11.9044 1.89725H9.06847V3.85432H11.6262V4.59619H9.06847V6.55325H11.9044V7.31262H8.26815V1.13892H11.9044V1.89725Z" stroke="white" stroke-width="0.2" stroke-miterlimit="10"/>
<path d="M15.2789 7.31262H14.4786V1.89725H12.7388V1.13892H17.0186V1.89725H15.2789V7.31262Z" stroke="white" stroke-width="0.2" stroke-miterlimit="10"/>
<path d="M20.115 7.31262V1.13892H20.9153V7.31262H20.115Z" stroke="white" stroke-width="0.2" stroke-miterlimit="10"/>
<path d="M24.4645 7.31262H23.6642V1.89725H21.9245V1.13892H26.2043V1.89725H24.4645V7.31262Z" stroke="white" stroke-width="0.2" stroke-miterlimit="10"/>
<path d="M34.3059 6.51517C33.6934 7.13871 32.9325 7.45049 32.0222 7.45049C31.1118 7.45049 30.351 7.13871 29.7396 6.51517C29.1271 5.89163 28.8219 5.12815 28.8219 4.22576C28.8219 3.32337 29.1271 2.55989 29.7396 1.93634C30.351 1.3128 31.1118 1 32.0222 1C32.9274 1 33.6872 1.31383 34.3017 1.94046C34.9162 2.56709 35.2235 3.32851 35.2235 4.22576C35.2235 5.12815 34.9173 5.89163 34.3059 6.51517ZM30.3302 5.99761C30.7911 6.46064 31.3547 6.69112 32.0222 6.69112C32.6896 6.69112 33.2543 6.45961 33.7142 5.99761C34.1751 5.53458 34.4066 4.94396 34.4066 4.22576C34.4066 3.50755 34.1751 2.91693 33.7142 2.45391C33.2543 1.99088 32.6896 1.76039 32.0222 1.76039C31.3547 1.76039 30.7911 1.99191 30.3302 2.45391C29.8704 2.91693 29.6389 3.50755 29.6389 4.22576C29.6389 4.94396 29.8704 5.53458 30.3302 5.99761Z" stroke="white" stroke-width="0.2" stroke-miterlimit="10"/>
<path d="M36.3466 7.31262V1.13892H37.3203L40.3472 5.94103H40.3815L40.3472 4.75156V1.13892H41.1475V7.31262H40.3119L37.1449 2.27694H37.1106L37.1449 3.4664V7.31262H36.3466Z" stroke="white" stroke-width="0.2" stroke-miterlimit="10"/>
</svg>
