<svg width="20" height="20" viewBox="0 0 20 20" fill="none" xmlns="http://www.w3.org/2000/svg">
<path fill-rule="evenodd" clip-rule="evenodd" d="M12.7304 15.3216C12.9392 15.352 13.1432 15.3672 13.3416 15.3672C15.124 15.3672 16.464 14.156 16.7584 12.2016L17.5256 7.06559C17.852 4.89279 16.6712 3.22159 14.5872 2.90719L11.027 2.37127L11.026 2.37079L11.025 2.37031C8.93727 2.06662 7.32314 3.31699 6.99756 5.49039L6.22956 10.6264C5.90316 12.7992 7.08476 14.4712 9.16879 14.7848L12.7304 15.3216ZM13.989 8.43323C14.0178 8.43723 14.0466 8.43963 14.0754 8.43963C14.369 8.43963 14.625 8.22363 14.6682 7.92523C14.7162 7.59723 14.489 7.29323 14.1602 7.24603L10.5642 6.72522C10.2314 6.67803 9.93223 6.90603 9.88503 7.23323C9.83703 7.56123 10.0642 7.86522 10.3922 7.91322L13.989 8.43323ZM12.1378 11.1052C12.1666 11.1092 12.1954 11.1116 12.2242 11.1116C12.5178 11.1116 12.7738 10.8964 12.817 10.5972C12.865 10.2692 12.6378 9.96523 12.309 9.91803L10.1522 9.60523C9.82583 9.56123 9.51943 9.78443 9.47223 10.1132C9.42503 10.4412 9.65223 10.7452 9.98023 10.7924L12.1378 11.1052Z" fill="#1B6A5F"/>
<path d="M11.0603 16.283L8.9888 15.9716C6.23917 15.5564 4.61676 13.2852 5.04236 10.4476L5.81036 5.31241C5.82409 5.22073 5.73681 5.14479 5.64873 5.17373L4.49969 5.55125C3.54369 5.86485 2.82529 6.45365 2.42289 7.25445C2.00209 8.08965 1.96129 9.11921 2.30529 10.152L3.92529 15.0808C4.47089 16.7296 5.71249 17.6752 7.19489 17.6752C7.58849 17.6752 7.99889 17.6088 8.41808 17.4704L11.0865 16.5932C11.2466 16.5406 11.227 16.3081 11.0603 16.283Z" fill="#1B6A5F"/>
</svg>
