<?xml version="1.0" encoding="UTF-8" standalone="no"?>
<!-- Uploaded to: SVG Repo, www.svgrepo.com, Generator: SVG Repo Mixer Tools -->

<svg
   fill="#98A2B3"
   width="642.84399"
   height="783.99902"
   viewBox="0 0 803.55499 979.99878"
   version="1.1"
   xmlns="http://www.w3.org/2000/svg"
   xmlns:svg="http://www.w3.org/2000/svg">
<path
   id="path1"
   d="M 5520.3079 4991.2051 C 5449.2079 5017.6051 1797.5108 5015.6032 1685.8108 4989.2032 C 1432.1108 4930.3032 1186.4927 4723.2987 1064.6927 4469.5987 L 989.595 4311.2979 L 983.49149 170.30671 C 979.39149 -2602.4933 985.50242 -4003.0966 999.70242 -4068.0966 C 1056.5024 -4335.9966 1257.5085 -4581.7009 1523.4085 -4707.5009 L 1679.7073 -4782.5986 L 4937.6907 -4788.7021 C 7111.6907 -4792.8021 8228.1106 -4786.6911 8293.1106 -4772.4911 C 8619.9106 -4703.4911 8920.3032 -4407.1036 8995.5032 -4080.3036 C 9009.7032 -4021.4036 9017.7932 -3030.8042 9017.7932 -1270.9042 C 9017.7932 1345.5958 9015.7946 1453.1921 8979.1946 1530.2921 C 8930.4946 1631.7921 5605.6079 4958.8051 5520.3079 4991.2051 z M 3299.7024 4402.5089 L 4856.6116 4402.5089 L 4856.6116 3087.2012 L 4856.4895 3087.2012 C 4856.4895 1654.1012 4858.5122 1635.8102 4972.2122 1438.9102 C 5061.5122 1286.7102 5225.9061 1140.494 5398.5061 1057.294 L 5556.8069 982.19636 L 6983.8089 976.09284 L 8408.8089 969.98932 L 8408.8089 -1524.6884 C 8408.8089 -3416.5884 8402.6948 -4031.5982 8384.3948 -4072.1982 C 8331.5948 -4189.8982 8532.6038 -4183.7948 4998.6038 -4183.7948 C 1464.6038 -4183.7948 1665.4884 -4189.8982 1612.7884 -4072.1982 C 1574.1884 -3990.9982 1578.2899 4229.9932 1616.8899 4298.9932 C 1675.7899 4404.5932 1629.1024 4400.5089 3299.7024 4402.5089 z M 5465.4983 4229.9991 L 6784.9075 2910.5899 L 8104.2923 1591.2051 L 6866.1087 1585.1016 C 5514.2087 1581.0016 5528.4108 1578.9964 5485.8108 1694.6964 C 5473.6108 1725.1964 5465.4983 2246.7895 5465.4983 2987.6895 L 5465.4983 4229.9991 z M 2989.0091 -22.588799 L 2989.0091 -327.1054 L 2989.0091 -631.59759 L 4998.6038 -631.59759 L 7008.1985 -631.59759 L 7008.1985 -327.1054 L 7008.1985 -22.588799 L 4998.6038 -22.588799 L 2989.0091 -22.588799 z M 2989.0091 -1341.998 L 2989.0091 -1646.4902 L 2989.0091 -1951.0068 L 4998.6038 -1951.0068 L 7008.1985 -1951.0068 L 7008.1985 -1646.4902 L 7008.1985 -1341.998 L 4998.6038 -1341.998 L 2989.0091 -1341.998 z M 2989.0091 -2620.8066 L 2989.0091 -2925.2988 L 2989.0091 -3229.7909 L 3943.1106 -3229.7909 L 4897.0901 -3229.7909 L 4897.0901 -2925.2988 L 4897.0901 -2620.8066 L 3943.1106 -2620.8066 L 2989.0091 -2620.8066 z "
   transform="matrix(0.1,0,0,-0.1,-98.224637,501.00284)" />
</svg>
