<svg width="20" height="20" viewBox="0 0 20 20" fill="none" xmlns="http://www.w3.org/2000/svg">
<path fill-rule="evenodd" clip-rule="evenodd" d="M11.6712 13.4192H7.25792C6.91292 13.4192 6.63292 13.1392 6.63292 12.7942C6.63292 12.4492 6.91292 12.1692 7.25792 12.1692H11.6712C12.0162 12.1692 12.2962 12.4492 12.2962 12.7942C12.2962 13.1392 12.0162 13.4192 11.6712 13.4192ZM7.25708 9.10167H9.99957C10.3446 9.10167 10.6246 9.38167 10.6246 9.72667C10.6246 10.0717 10.3446 10.3517 9.99957 10.3517H7.25708C6.91208 10.3517 6.63208 10.0717 6.63208 9.72667C6.63208 9.38167 6.91208 9.10167 7.25708 9.10167ZM16.5437 7.57833H14.0746C12.6021 7.57083 11.3871 6.35167 11.3871 4.865V2.24833C11.3871 2.04583 11.2262 1.875 11.0171 1.875H6.72125C4.71875 1.875 3.09375 3.52417 3.09375 5.53917V14.2983C3.09375 16.4108 4.79875 18.125 6.89042 18.125H13.2862C15.2887 18.125 16.9062 16.4917 16.9062 14.4767V7.94417C16.9062 7.74083 16.7454 7.57833 16.5437 7.57833Z" fill="#1B6A5F"/>
<path fill-rule="evenodd" clip-rule="evenodd" d="M14.1811 6.39207C14.7419 6.3979 15.5211 6.4004 16.1828 6.3979C16.5211 6.39707 16.6936 5.9879 16.4586 5.74207C16.0344 5.29707 15.4436 4.6754 14.8494 4.05207C14.2536 3.42623 13.6553 2.79707 13.2194 2.3404C12.9794 2.08707 12.5586 2.26123 12.5586 2.61123V4.7529C12.5586 5.65207 13.2911 6.39207 14.1811 6.39207Z" fill="#1B6A5F"/>
</svg>
